<svg width="369" height="353" viewBox="0 0 369 353" fill="none" xmlns="http://www.w3.org/2000/svg">
<g clip-path="url(#clip0_53_1941)" filter="url(#filter0_d_53_1941)">
<path d="M62.9595 264.971C59.0581 262.52 54.5929 260.983 50.0165 260.508C47.9026 260.292 45.5885 260.352 43.8973 261.636C43.5339 261.911 43.1853 262.312 43.2669 262.758C43.3262 263.085 43.6006 263.322 43.8677 263.523C49.1265 267.541 57.0925 268.053 62.9595 264.971Z" fill="#E0E0E0"/>
<path d="M62.6253 264.6C59.6955 262.312 56.7509 260.003 54.2661 257.232C51.7814 254.462 49.7639 251.172 49.0222 247.526C48.7997 246.419 48.7255 245.157 49.4375 244.28C56.0982 249.494 61.3347 256.237 62.6253 264.6Z" fill="#E0E0E0"/>
<path d="M62.8853 264.919C62.3809 261.273 62.2029 257.515 63.0411 253.928C63.8792 250.34 65.8299 246.909 68.8858 244.859C70.0355 247.555 69.5459 250.66 68.7301 253.474C67.4766 257.827 65.511 261.971 62.9298 265.699" fill="#E0E0E0"/>
<path d="M69.4193 276.638C65.4511 277.121 62.0021 279.215 59.0426 281.896C56.0832 284.577 53.9767 288.202 53.1089 292.101C56.9955 291.863 60.2961 289.115 62.6919 286.033C65.0876 282.951 66.7417 279.572 69.3748 276.698" fill="#E0E0E0"/>
<path d="M70.8362 278.51C67.6394 270.63 68.7964 261.139 73.7956 254.262C76.0504 262.312 75.2271 271.403 70.8362 278.51Z" fill="#E0E0E0"/>
<path d="M79.47 288.803C75.8726 288.58 72.216 289.435 69.0859 291.239C65.9633 293.044 63.3821 295.777 61.7651 299.008C61.5426 299.446 61.3498 300.003 61.6465 300.396C61.8986 300.738 62.3956 300.768 62.8184 300.746C66.3045 300.523 69.3974 298.421 71.9489 296.022C74.5005 293.631 76.7256 290.868 79.5441 288.796" fill="#E0E0E0"/>
<path d="M79.1954 288.239C77.3411 282.29 77.2225 275.814 78.8691 269.799C79.5144 267.422 80.6047 264.927 82.8002 263.813C82.9856 263.716 83.2081 263.634 83.401 263.709C83.5864 263.776 83.6977 263.969 83.7793 264.147C84.5581 265.781 84.788 267.63 84.7064 269.435C84.6248 271.239 84.254 273.022 83.8757 274.789C83.1859 278.065 82.815 281.577 81.0275 284.4C80.6047 285.068 80.2264 285.796 79.8852 286.509C79.544 287.229 79.544 287.482 79.2325 288.046" fill="#E0E0E0"/>
<path d="M102.04 291.648C100.349 285.202 102.144 277.389 106.201 272.101C106.498 271.715 106.899 271.291 107.381 271.343C108.13 271.41 108.323 272.413 108.286 273.163C107.996 279.75 105.808 286.241 102.04 291.648Z" fill="#E0E0E0"/>
<path d="M104.103 293.059C111.928 295.094 120.903 293.119 127.408 288.314C123.551 286.36 119.004 285.796 114.791 286.761C110.578 287.727 106.728 289.621 104.103 293.059Z" fill="#E0E0E0"/>
<path d="M105.839 288.766C110.222 281.615 118.619 276.943 126.985 276.52C126.021 279.929 123.225 282.58 120.065 284.177C116.905 285.781 113.39 286.472 109.911 287.147C108.568 287.415 106.714 287.704 105.839 288.766Z" fill="#E0E0E0"/>
<path d="M102.479 267.942C103.666 263.872 104.86 259.765 105.186 255.539C105.513 251.314 104.912 246.902 102.716 243.27C98.622 251.202 98.2066 260.463 102.353 268.365" fill="#E0E0E0"/>
<path d="M116.252 260.968C121.037 252.257 130.805 245.305 140.685 244.325C136.872 253.824 126.481 261.169 116.252 260.968Z" fill="#E0E0E0"/>
<path d="M113.24 262.676C120.376 263.768 126.458 268.328 133.126 271.098C134.55 271.692 136.093 272.16 137.621 271.96C139.149 271.759 140.662 270.727 141.003 269.227C141.285 267.972 140.721 266.65 139.824 265.729C138.926 264.815 137.739 264.236 136.56 263.746C129.299 260.716 121.503 260.641 113.856 262.476" fill="#E0E0E0"/>
<path d="M109.117 267.682C110.733 268.142 111.282 268.982 112.566 270.073C116.905 273.772 122.111 276.453 127.645 277.827C128.223 277.968 128.98 278.027 129.262 277.508C129.514 277.055 129.195 276.498 128.869 276.097C126.547 273.193 123.246 271.202 119.76 269.91C116.282 268.61 113.263 267.051 109.109 267.385" fill="#E0E0E0"/>
<path d="M104.451 237.411C110.251 242.832 118.432 245.617 126.332 244.867C126.688 244.83 127.081 244.778 127.326 244.511C127.874 243.909 127.214 242.988 126.576 242.483C120.146 237.463 112.35 235.376 104.451 237.411Z" fill="#E0E0E0"/>
<path d="M109.978 235.39C117.647 229.635 128.172 227.897 137.281 230.882C133.839 234.276 129.07 236.103 124.271 236.601C119.472 237.098 114.666 236.564 109.978 235.39Z" fill="#E0E0E0"/>
<path d="M107.781 221.48C107.151 215.049 107.559 209.976 107.114 203.515C107.077 203.002 106.966 202.379 106.483 202.193C105.809 201.933 105.252 202.757 105.03 203.448C103.116 209.404 104.162 216.229 107.767 221.339" fill="#E0E0E0"/>
<path d="M107.322 222.186C111.676 219.49 114.939 215.97 117.958 211.833C120.057 208.951 121.83 205.505 121.355 201.97C118.403 201.911 115.599 203.537 113.686 205.788C111.765 208.031 110.622 210.838 109.777 213.667C108.916 216.497 108.323 219.408 107.322 222.186Z" fill="#E0E0E0"/>
<path d="M117.772 219.282C127.326 215.746 136.234 210.481 143.948 203.827C140.817 202.564 137.242 203.322 134.112 204.584C126.97 207.473 121.132 212.345 117.631 219.215" fill="#E0E0E0"/>
<path d="M110.259 225.706C115.087 226.233 119.998 226.582 124.796 225.78C129.506 224.993 133.964 223.121 138.363 221.265C138.726 221.109 139.126 220.923 139.282 220.567C139.453 220.173 139.267 219.69 138.948 219.401C138.63 219.111 138.207 218.97 137.791 218.858C133.007 217.514 127.838 218.146 123.128 219.735C118.425 221.324 114.561 223.211 110.259 225.706Z" fill="#E0E0E0"/>
<path d="M82.6668 237.633C79.3736 230.971 79.5813 223.196 82.4295 216.326C84.4321 219.386 84.6769 223.277 84.3135 226.916C83.95 230.556 82.8374 234.306 82.7707 237.96" fill="#E0E0E0"/>
<path d="M69.4934 230.979C61.2604 230.823 53.0273 234.336 47.4421 240.389C51.5513 241.035 55.7791 239.973 59.5173 238.146C63.2556 236.319 66.5785 233.757 69.8643 231.21" fill="#E0E0E0"/>
<path d="M60.6377 228.016C56.6102 227.689 52.7384 227.191 48.8666 228.38C44.9949 229.568 41.4717 232.264 39.8918 235.999C43.6598 236.423 47.4796 235.48 50.9286 233.913C54.385 232.345 57.5225 230.177 60.6377 228.016Z" fill="#E0E0E0"/>
<path d="M73.751 228.149C70.1314 225.773 66.408 223.352 62.1876 222.371C57.9672 221.384 53.0793 222.112 50.1421 225.298C53.554 227.303 57.7002 227.54 61.661 227.54C65.6218 227.54 70.4726 227.496 74.2035 228.818" fill="#E0E0E0"/>
<path d="M73.7729 228.342C67.5796 222.252 65.2357 211.313 67.7205 202.988C72.5936 210.399 74.7742 219.534 73.7729 228.342Z" fill="#E0E0E0"/>
<path d="M90.8035 211.09C91.968 208.372 92.7913 205.52 93.8371 202.75C94.8829 199.98 96.1883 197.262 98.1687 195.063C100.149 192.865 102.886 191.231 105.838 191.083C103.991 199.46 98.4358 206.946 90.9518 211.135" fill="#E0E0E0"/>
<path d="M87.7179 214.685C85.782 212.019 83.5495 208.402 80.9312 206.419C78.3129 204.428 74.8936 203.225 71.6968 203.99C74.9529 209.813 81.1018 213.92 87.7179 214.685Z" fill="#E0E0E0"/>
<path d="M88.3406 211.313C87.0723 208.09 85.7965 204.829 85.2848 201.406C84.773 197.982 85.0845 194.321 86.8349 191.335C90.232 197.767 91.3298 204.673 88.5112 211.387" fill="#E0E0E0"/>
<path d="M90.833 191.335C92.7615 184.956 98.5914 180.262 104.889 178.108C105.682 177.833 106.52 177.611 107.351 177.737C108.182 177.863 108.99 178.435 109.168 179.252C109.398 180.336 108.501 181.309 107.663 182.029C102.76 186.226 96.9967 189.412 90.833 191.335Z" fill="#E0E0E0"/>
<path d="M90.8999 186.114C91.1447 182 91.4043 177.826 92.7394 173.934C94.0744 170.035 96.6482 166.381 100.394 164.673C101.032 168.825 99.1997 172.961 96.9968 176.534C94.7865 180.106 92.1311 183.485 90.8035 187.466" fill="#E0E0E0"/>
<path d="M90.8039 188.944C89.2092 184.295 89.046 178.39 86.2645 174.343C84.3212 171.513 81.206 169.582 79.5371 166.582C78.4246 169.382 78.7657 172.612 79.9302 175.39C81.0947 178.168 83.0158 180.559 85.0704 182.765C87.1323 184.963 88.8902 186.619 90.8039 188.944Z" fill="#E0E0E0"/>
<path d="M90.8346 325.848C90.7083 325.848 90.6043 294.834 90.5969 256.594C90.5894 218.339 90.6786 187.332 90.8049 187.332C90.9312 187.332 91.0352 218.339 91.0426 256.594C91.05 294.834 90.9609 325.848 90.8346 325.848Z" fill="#E0E0E0"/>
<path d="M117.899 232.955C117.906 232.984 117.491 233.14 116.734 233.393C115.896 233.675 114.82 234.039 113.53 234.477C110.83 235.398 107.114 236.735 103.086 238.383C99.096 240.099 95.3355 241.488 93.192 243.345C92.1239 244.265 91.5082 245.253 91.2041 245.981C90.9 246.709 90.8407 247.154 90.8036 247.147C90.7888 247.147 90.7962 247.036 90.8185 246.82C90.8555 246.612 90.9075 246.3 91.0484 245.914C91.308 245.149 91.9088 244.087 92.9917 243.107C94.0672 242.127 95.5655 241.243 97.2862 240.433C98.9996 239.631 100.906 238.792 102.931 237.96C106.973 236.304 110.711 235.012 113.448 234.165C114.813 233.742 115.926 233.422 116.704 233.214C117.461 233.021 117.891 232.925 117.899 232.955Z" fill="#E0E0E0"/>
<path d="M126.77 211.134C126.778 211.149 126.666 211.268 126.444 211.483C126.177 211.729 125.85 212.04 125.45 212.419C124.53 213.258 123.269 214.402 121.741 215.791C118.537 218.65 114.191 222.52 109.392 226.797C104.571 231.09 100.402 235.197 97.5168 238.287C96.0705 239.831 94.9356 241.109 94.1568 242C93.7934 242.416 93.4967 242.757 93.2593 243.025C93.0517 243.255 92.933 243.374 92.9256 243.366C92.9107 243.359 93.0072 243.218 93.1926 242.973C93.378 242.72 93.6524 242.349 94.0233 241.889C94.7576 240.96 95.8628 239.646 97.2869 238.071C100.12 234.915 104.266 230.763 109.095 226.456C113.931 222.171 118.337 218.316 121.534 215.546C123.106 214.194 124.389 213.088 125.339 212.278C125.761 211.929 126.11 211.639 126.385 211.409C126.629 211.216 126.763 211.12 126.77 211.134Z" fill="#E0E0E0"/>
<path d="M104.191 231.172C104.065 231.113 105.074 228.788 106.075 225.847C107.092 222.906 107.566 220.418 107.692 220.441C107.811 220.455 107.522 223.01 106.498 225.988C105.994 227.474 105.437 228.788 105 229.717C104.555 230.637 104.243 231.194 104.191 231.172Z" fill="#E0E0E0"/>
<path d="M90.8626 249.939C90.8403 249.954 90.5733 249.65 90.1209 249.078C89.6165 248.432 88.9786 247.615 88.2146 246.635C86.6125 244.562 84.4096 241.711 81.9323 238.584C79.4549 235.457 77.1779 232.657 75.5312 230.63C74.7524 229.664 74.0997 228.855 73.5879 228.216C73.1355 227.644 72.8907 227.318 72.9204 227.295C72.9426 227.273 73.2319 227.563 73.7214 228.105C74.2184 228.64 74.923 229.434 75.776 230.422C77.4894 232.397 79.8035 235.175 82.2883 238.302C84.7656 241.428 86.9389 244.317 88.4742 246.441C89.2456 247.503 89.8538 248.365 90.2618 248.974C90.6697 249.576 90.8848 249.925 90.8626 249.939Z" fill="#E0E0E0"/>
<path d="M84.9289 242.312C84.8548 242.394 83.2749 240.508 82.4442 237.656C81.8285 235.643 81.8063 233.801 81.8805 232.955L82.0807 232.97C81.9917 233.326 81.925 233.519 81.8953 233.512C81.8582 233.504 81.8582 233.304 81.8879 232.94L82.0881 232.955C82.1623 233.786 82.2884 235.569 82.8818 237.522C83.668 240.292 85.0476 242.238 84.9289 242.312Z" fill="#E0E0E0"/>
<path d="M77.2667 232.665C77.2073 232.724 76.7029 232.086 75.531 231.655C74.374 231.209 72.6235 231.105 70.7099 231.269C68.7962 231.41 67.0829 231.751 65.859 232.056C64.6352 232.36 63.886 232.598 63.8638 232.539C63.8415 232.487 64.5536 232.138 65.7774 231.751C66.9938 231.365 68.7295 230.972 70.6802 230.823C72.6161 230.652 74.4555 230.808 75.6497 231.358C76.8661 231.9 77.3037 232.65 77.2667 232.665Z" fill="#E0E0E0"/>
<path d="M75.4499 230.326C75.4128 230.392 74.4412 229.917 72.7872 229.353C71.1405 228.788 68.7967 228.194 66.1488 227.986C63.5008 227.786 61.0977 228.023 59.3843 228.328C57.6709 228.632 56.6325 228.959 56.6103 228.885C56.6028 228.855 56.855 228.751 57.3149 228.58C57.7748 228.409 58.4646 228.209 59.325 228.016C61.0457 227.622 63.4934 227.333 66.1859 227.533C68.8783 227.741 71.2592 228.402 72.8984 229.048C73.7217 229.375 74.367 229.672 74.7972 229.91C75.2348 230.155 75.4648 230.296 75.4499 230.326Z" fill="#E0E0E0"/>
<path d="M90.8033 220.433C90.6846 220.462 89.8168 217.44 88.8674 213.689C87.918 209.931 87.243 206.864 87.3617 206.834C87.4804 206.805 88.3482 209.82 89.2976 213.578C90.247 217.336 90.9219 220.403 90.8033 220.433Z" fill="#E0E0E0"/>
<path d="M90.9301 220.433C90.7966 220.478 90.2404 218.458 88.7792 216.393C87.3625 214.284 85.5527 213.229 85.612 213.125C85.6343 213.081 86.1386 213.259 86.8359 213.756C87.5331 214.247 88.4009 215.071 89.1426 216.14C90.6557 218.287 91.034 220.426 90.9301 220.433Z" fill="#E0E0E0"/>
<path d="M90.8331 309.316C90.7812 309.324 90.6922 308.573 90.3435 307.251C89.9949 305.937 89.3496 304.065 88.2741 301.882C86.138 297.5 82.244 291.952 77.2967 286.39C74.8416 283.582 72.4681 280.939 70.4506 278.406C68.4257 275.874 66.7643 273.467 65.5553 271.336C64.3389 269.204 63.5452 267.377 63.0854 266.085C62.8554 265.439 62.6923 264.934 62.6033 264.585C62.5068 264.236 62.4623 264.05 62.4772 264.05C62.5142 264.035 62.7442 264.763 63.256 266.026C63.7677 267.288 64.5985 269.085 65.8371 271.18C67.0758 273.274 68.7521 275.651 70.7844 278.154C72.8093 280.664 75.1902 283.293 77.6527 286.1C82.6148 291.678 86.5014 297.3 88.5782 301.748C89.6241 303.969 90.2397 305.87 90.529 307.214C90.6699 307.883 90.7663 308.41 90.8034 308.767C90.8331 309.123 90.8479 309.309 90.8331 309.316Z" fill="#E0E0E0"/>
<path d="M115.288 281.652C115.303 281.681 114.836 281.919 114.005 282.372C113.182 282.833 112.017 283.546 110.682 284.57C109.347 285.595 107.849 286.94 106.313 288.559C104.778 290.178 103.206 292.064 101.589 294.077C98.3696 298.124 95.3582 301.704 93.5484 304.563C92.6361 305.982 91.9685 307.177 91.5309 308.017C91.0933 308.856 90.856 309.324 90.8263 309.309C90.8115 309.301 90.856 309.175 90.945 308.945C91.0414 308.715 91.1675 308.366 91.3752 307.942C91.7683 307.073 92.3913 305.848 93.2814 304.4C95.0318 301.474 98.021 297.842 101.24 293.802C102.857 291.782 104.452 289.895 106.017 288.276C107.582 286.657 109.117 285.321 110.489 284.318C111.869 283.315 113.07 282.632 113.923 282.216C114.346 282.001 114.695 281.875 114.925 281.771C115.162 281.681 115.288 281.637 115.288 281.652Z" fill="#E0E0E0"/>
<path d="M115.769 290.631C115.777 290.697 114.738 290.824 113.062 291.024C111.393 291.24 109.072 291.522 106.639 292.294C104.213 293.081 102.196 294.292 100.883 295.317C99.5554 296.342 98.9323 297.188 98.873 297.144C98.8507 297.129 98.9842 296.899 99.2735 296.52C99.5628 296.141 100.037 295.629 100.683 295.072C101.973 293.958 104.013 292.68 106.498 291.871C108.99 291.084 111.349 290.853 113.032 290.712C114.716 290.586 115.762 290.571 115.769 290.631Z" fill="#E0E0E0"/>
<path d="M99.6596 296.149C99.5187 296.067 100.743 294.203 101.684 291.693C102.575 289.16 102.782 286.932 102.938 286.962C102.997 286.969 102.99 287.526 102.893 288.417C102.79 289.309 102.575 290.541 102.1 291.849C101.625 293.148 101.002 294.24 100.527 294.99C100.053 295.748 99.7115 296.186 99.6596 296.149Z" fill="#E0E0E0"/>
<path d="M123.209 257.566C123.216 257.581 123.068 257.663 122.779 257.797C122.445 257.953 122.022 258.138 121.503 258.376C120.947 258.614 120.272 258.918 119.508 259.319C118.744 259.713 117.846 260.121 116.919 260.678C116.444 260.946 115.955 261.228 115.443 261.518C114.931 261.815 114.427 262.164 113.885 262.498C112.795 263.159 111.705 263.976 110.54 264.808C108.263 266.538 105.86 268.588 103.553 270.957C101.269 273.348 99.3033 275.814 97.6492 278.161C96.8556 279.357 96.0842 280.478 95.4612 281.592C95.1422 282.142 94.8084 282.661 94.534 283.189C94.2596 283.709 94 284.214 93.7478 284.696C93.2212 285.647 92.8429 286.553 92.4794 287.333C92.1012 288.113 91.8267 288.796 91.6042 289.36C91.3891 289.888 91.2111 290.311 91.0702 290.653C90.9441 290.95 90.8699 291.098 90.8551 291.091C90.8402 291.083 90.8847 290.92 90.9886 290.615C91.1073 290.266 91.263 289.828 91.4485 289.286C91.6413 288.707 91.9009 288.009 92.2569 287.221C92.6055 286.427 92.9616 285.506 93.4733 284.54C93.7181 284.05 93.9777 283.538 94.2447 283.01C94.5192 282.483 94.8455 281.956 95.157 281.391C95.7727 280.263 96.5441 279.126 97.3303 277.916C98.9769 275.547 100.95 273.044 103.249 270.638C105.578 268.254 108.004 266.196 110.31 264.466C111.49 263.634 112.595 262.825 113.7 262.178C114.249 261.844 114.761 261.503 115.28 261.213C115.799 260.931 116.303 260.656 116.778 260.389C117.72 259.846 118.632 259.453 119.411 259.082C120.19 258.695 120.88 258.421 121.451 258.205C121.978 258.005 122.415 257.834 122.756 257.7C123.046 257.604 123.209 257.552 123.209 257.566Z" fill="#E0E0E0"/>
<path d="M103.857 270.548C103.82 270.541 104.035 269.791 104.918 268.959C105.786 268.135 107.366 267.37 109.205 267.31C111.037 267.258 112.632 267.778 113.715 268.194C114.805 268.625 115.443 268.974 115.421 269.026C115.399 269.085 114.716 268.84 113.611 268.499C112.513 268.164 110.956 267.719 109.22 267.763C107.484 267.815 105.994 268.484 105.126 269.204C104.236 269.917 103.924 270.593 103.857 270.548Z" fill="#E0E0E0"/>
<path d="M100.965 273.541C100.839 273.475 101.937 271.87 102.181 269.576C102.471 267.281 101.773 265.476 101.907 265.432C101.959 265.409 102.196 265.833 102.411 266.59C102.626 267.34 102.76 268.432 102.626 269.628C102.485 270.823 102.1 271.856 101.721 272.531C101.336 273.215 101.002 273.571 100.965 273.541Z" fill="#E0E0E0"/>
<path d="M69.4426 313.757C70.1102 325.611 73.6778 337.664 79.1591 349.844H103.013C108.242 337.776 111.565 325.744 112.158 313.757H69.4426Z" fill="#E0E0E0"/>
<path d="M108.293 332.933C108.293 333.06 100.438 333.156 90.7516 333.156C81.0648 333.156 73.21 333.052 73.21 332.933C73.21 332.807 81.0648 332.71 90.7516 332.71C100.438 332.71 108.293 332.814 108.293 332.933Z" fill="#FAFAFA"/>
<path d="M107.76 337.226C107.76 337.352 100.395 337.448 91.316 337.448C82.2299 337.448 74.8721 337.344 74.8721 337.226C74.8721 337.099 82.2373 337.003 91.316 337.003C100.402 337.003 107.76 337.107 107.76 337.226Z" fill="#FAFAFA"/>
<path d="M79.5528 321.541C79.6791 321.541 79.7757 324.006 79.7757 327.044C79.7757 330.082 79.6717 332.547 79.5528 332.547C79.4265 332.547 79.33 330.082 79.33 327.044C79.3225 323.999 79.4265 321.541 79.5528 321.541Z" fill="#FAFAFA"/>
<path d="M92.3322 321.54C92.4585 321.54 92.5551 324.095 92.5551 327.237C92.5551 330.386 92.4585 332.933 92.3322 332.933C92.206 332.933 92.1094 330.386 92.1094 327.237C92.1094 324.088 92.206 321.54 92.3322 321.54Z" fill="#FAFAFA"/>
<path d="M104.334 321.444C104.46 321.444 104.557 324.043 104.557 327.251C104.557 330.46 104.453 333.067 104.334 333.067C104.208 333.067 104.111 330.467 104.111 327.251C104.104 324.043 104.208 321.444 104.334 321.444Z" fill="#FAFAFA"/>
<path d="M111.408 321.54C111.408 321.667 102.196 321.763 90.8328 321.763C79.4697 321.763 70.2576 321.659 70.2576 321.54C70.2576 321.414 79.4697 321.318 90.8328 321.318C102.189 321.318 111.408 321.414 111.408 321.54Z" fill="#FAFAFA"/>
<path d="M471.832 25.2581H296.601V186.04H471.832V25.2581Z" fill="#EBEBEB"/>
<path d="M464.281 31.296H304.054V179.786H464.281V31.296Z" fill="#FAFAFA"/>
<path d="M478.471 64.9465H289.548V70.5537H478.471V64.9465Z" fill="#F5F5F5"/>
<path d="M478.471 54.319H289.548V59.9262H478.471V54.319Z" fill="#F5F5F5"/>
<path d="M478.471 43.6985H289.548V49.3057H478.471V43.6985Z" fill="#F5F5F5"/>
<path d="M478.471 33.0782H289.548V38.6854H478.471V33.0782Z" fill="#F5F5F5"/>
<path d="M478.471 22.4506H289.548V28.0578H478.471V22.4506Z" fill="#F5F5F5"/>
<path d="M478.471 116.637H289.548V122.244H478.471V116.637Z" fill="#F5F5F5"/>
<path d="M478.471 106.017H289.548V111.624H478.471V106.017Z" fill="#F5F5F5"/>
<path d="M478.471 95.3963H289.548V101.003H478.471V95.3963Z" fill="#F5F5F5"/>
<path d="M478.471 84.7687H289.548V90.3759H478.471V84.7687Z" fill="#F5F5F5"/>
<path d="M478.471 74.1484H289.548V79.7556H478.471V74.1484Z" fill="#F5F5F5"/>
<path d="M224.45 33.4251L217.767 33.4609L217.945 66.7698L224.628 66.734L224.45 33.4251Z" fill="#E0E0E0"/>
<path d="M177.166 33.508L159.854 33.6006L159.953 51.9892L177.264 51.8966L177.166 33.508Z" fill="#EBEBEB"/>
<path d="M194.398 33.4188L177.086 33.5116L177.184 51.9002L194.496 51.8074L194.398 33.4188Z" fill="#F5F5F5"/>
<path d="M159.878 38.6784C171.382 38.775 182.916 38.7081 194.42 38.5225C194.657 38.5225 194.657 38.1586 194.42 38.1511C182.916 38.0843 171.382 38.1437 159.878 38.3591C159.678 38.3665 159.678 38.6784 159.878 38.6784Z" fill="#E0E0E0"/>
<path d="M180.514 51.5915L149.065 51.7601L149.145 66.7473L180.594 66.5786L180.514 51.5915Z" fill="#EBEBEB"/>
<path d="M211.815 51.4205L180.366 51.5892L180.446 66.5764L211.895 66.4077L211.815 51.4205Z" fill="#F5F5F5"/>
<path d="M149.079 55.9233C169.974 56.1609 190.942 55.9456 211.829 55.6114C212.066 55.6039 212.066 55.2474 211.829 55.24C190.935 55.1286 169.966 55.1435 149.079 55.6039C148.879 55.6114 148.879 55.9233 149.079 55.9233Z" fill="#E0E0E0"/>
<path d="M259.175 66.7438H137.326V72.1134H259.175V66.7438Z" fill="#E0E0E0"/>
<path d="M162.218 69.3209H157.271V87.6353H162.218V69.3209Z" fill="#E0E0E0"/>
<path d="M236.063 69.3212H231.116V87.6356H236.063V69.3212Z" fill="#E0E0E0"/>
<path d="M230.972 21L224.29 21.0358L224.535 66.8439L231.218 66.8081L230.972 21Z" fill="#EBEBEB"/>
<path d="M241.417 29.5308L231.033 29.5867L231.232 66.7055L241.616 66.6497L241.417 29.5308Z" fill="#F5F5F5"/>
<path d="M241.351 36.6807C241.351 36.7772 239.022 36.8589 236.159 36.8589C233.288 36.8589 230.967 36.7772 230.967 36.6807C230.967 36.5841 233.288 36.5024 236.159 36.5024C239.022 36.5024 241.351 36.5841 241.351 36.6807Z" fill="#E0E0E0"/>
<path d="M241.351 35.1211C241.351 35.2176 239.022 35.2993 236.159 35.2993C233.288 35.2993 230.967 35.2176 230.967 35.1211C230.967 35.0245 233.288 34.9428 236.159 34.9428C239.022 34.9428 241.351 35.0245 241.351 35.1211Z" fill="#E0E0E0"/>
<path d="M241.351 61.0627C241.351 61.1593 239.022 61.2409 236.159 61.2409C233.288 61.2409 230.967 61.1593 230.967 61.0627C230.967 60.9662 233.288 60.8845 236.159 60.8845C239.022 60.8845 241.351 60.9662 241.351 61.0627Z" fill="#E0E0E0"/>
<path d="M241.351 59.503C241.351 59.5996 239.022 59.6813 236.159 59.6813C233.288 59.6813 230.967 59.5996 230.967 59.503C230.967 59.4065 233.288 59.3248 236.159 59.3248C239.022 59.3248 241.351 59.4065 241.351 59.503Z" fill="#E0E0E0"/>
<path d="M236.322 56.1013C236.225 56.1013 236.143 52.3582 236.143 47.7388C236.143 43.1194 236.225 39.3763 236.322 39.3763C236.418 39.3763 236.5 43.1194 236.5 47.7388C236.5 52.3582 236.418 56.1013 236.322 56.1013Z" fill="#E0E0E0"/>
<path d="M252.766 38.6483H241.463V66.6694H252.766V38.6483Z" fill="#EBEBEB"/>
<path d="M229.454 28.823C229.454 29.885 228.594 30.7465 227.533 30.7465C226.473 30.7465 225.612 29.885 225.612 28.823C225.612 27.761 226.473 26.8995 227.533 26.8995C228.594 26.8995 229.454 27.761 229.454 28.823Z" fill="#E0E0E0"/>
<path d="M228.125 34.1111H226.938V61.3598H228.125V34.1111Z" fill="#E0E0E0"/>
<path d="M114.427 33.1086H24.7083V149.129H114.427V33.1086Z" fill="#455A64"/>
<path d="M114.427 33.1083C114.435 33.1157 114.353 33.2197 114.183 33.4202C113.982 33.643 113.73 33.9326 113.411 34.2891C112.692 35.0764 111.676 36.1904 110.378 37.6163L110.341 37.6534H110.281C102.478 37.7351 87.1545 37.7871 69.5609 37.7871C51.9599 37.7871 36.636 37.7351 28.8405 37.6534H28.7812L28.7441 37.6163C27.4461 36.1904 26.4299 35.0838 25.7105 34.2891C25.3915 33.9252 25.1393 33.643 24.9391 33.4202C24.7685 33.2197 24.6869 33.1157 24.6943 33.1083C24.7017 33.1009 24.8056 33.19 24.991 33.3756C25.1987 33.5836 25.4731 33.8584 25.8069 34.2C26.5486 34.9724 27.587 36.0567 28.9221 37.4455L28.8331 37.4084C36.636 37.3267 51.9599 37.2747 69.5535 37.2747C87.1471 37.2747 102.471 37.3267 110.274 37.4084L110.185 37.4455C111.52 36.0567 112.566 34.9724 113.3 34.2C113.641 33.8584 113.908 33.5836 114.116 33.3756C114.316 33.19 114.42 33.1009 114.427 33.1083Z" fill="#263238"/>
<path d="M24.7085 149.136C24.7011 149.129 24.7826 149.025 24.9532 148.824C25.1535 148.601 25.4057 148.312 25.7246 147.955C26.4441 147.168 27.4602 146.054 28.7583 144.628L28.7953 144.591H28.8547C36.6576 144.509 51.9815 144.457 69.5751 144.457C87.1761 144.457 102.5 144.509 110.295 144.591H110.355L110.392 144.628C111.69 146.054 112.706 147.16 113.425 147.955C113.744 148.319 113.997 148.601 114.197 148.824C114.367 149.025 114.449 149.129 114.442 149.136C114.434 149.143 114.33 149.054 114.145 148.869C113.937 148.661 113.663 148.386 113.329 148.044C112.587 147.272 111.549 146.188 110.214 144.799L110.303 144.836C102.5 144.918 87.176 144.97 69.5825 144.97C51.9889 144.97 36.665 144.918 28.8621 144.836L28.9511 144.799C27.616 146.188 26.5702 147.272 25.8359 148.044C25.4947 148.386 25.2277 148.661 25.02 148.869C24.8197 149.054 24.7159 149.143 24.7085 149.136Z" fill="#263238"/>
<path d="M110.29 37.5349H28.8491V144.718H110.29V37.5349Z" fill="white"/>
<path d="M41.5908 113.933C44.0162 111.624 47.5913 110.97 50.9365 111.052C54.2816 111.133 57.5971 111.846 60.9423 111.802C66.2901 111.735 71.623 109.752 76.8966 110.666C78.5803 110.955 80.2863 111.542 81.9626 111.185C83.4238 110.874 84.655 109.871 86.094 109.44C89.81 108.334 93.9858 111.237 97.5535 109.722V133.644H41.5908V113.933Z" fill="#FF725E"/>
<path d="M42.7183 114.335C42.5774 114.335 42.4587 100.165 42.4587 82.6823C42.4587 65.1998 42.5774 51.0295 42.7183 51.0295C42.8593 51.0295 42.9779 65.1998 42.9779 82.6823C42.9779 100.157 42.8593 114.335 42.7183 114.335Z" fill="#263238"/>
<path d="M45.2611 114.335C45.1201 114.335 45.0015 100.164 45.0015 82.6818C45.0015 65.1992 45.1201 51.029 45.2611 51.029C45.402 51.029 45.5207 65.1992 45.5207 82.6818C45.5207 100.157 45.4094 114.335 45.2611 114.335Z" fill="#263238"/>
<path d="M47.8136 114.335C47.6726 114.335 47.554 100.164 47.554 82.6818C47.554 65.1993 47.6726 51.0291 47.8136 51.0291C47.9545 51.0291 48.0732 65.1993 48.0732 82.6818C48.0732 100.157 47.9545 114.335 47.8136 114.335Z" fill="#263238"/>
<path d="M50.3555 114.335C50.2146 114.335 50.0959 100.165 50.0959 82.6821C50.0959 65.1995 50.2146 51.0293 50.3555 51.0293C50.4965 51.0293 50.6151 65.1995 50.6151 82.6821C50.6151 100.157 50.5039 114.335 50.3555 114.335Z" fill="#263238"/>
<path d="M52.9076 114.335C52.7666 114.335 52.6479 100.164 52.6479 82.6818C52.6479 65.1992 52.7666 51.029 52.9076 51.029C53.0485 51.029 53.1672 65.1992 53.1672 82.6818C53.1672 100.157 53.0485 114.335 52.9076 114.335Z" fill="#263238"/>
<path d="M55.4522 114.335C55.3113 114.335 55.1926 100.165 55.1926 82.682C55.1926 65.1995 55.3113 51.0292 55.4522 51.0292C55.5932 51.0292 55.7118 65.1995 55.7118 82.682C55.7118 100.157 55.6006 114.335 55.4522 114.335Z" fill="#263238"/>
<path d="M58.0047 114.335C57.8638 114.335 57.7451 100.164 57.7451 82.6819C57.7451 65.1993 57.8638 51.0291 58.0047 51.0291C58.1456 51.0291 58.2643 65.1993 58.2643 82.6819C58.2643 100.157 58.1456 114.335 58.0047 114.335Z" fill="#263238"/>
<path d="M60.5516 114.334C60.4107 114.334 60.292 100.164 60.292 82.6816C60.292 65.199 60.4107 51.0288 60.5516 51.0288C60.6925 51.0288 60.8112 65.199 60.8112 82.6816C60.8112 100.157 60.6999 114.334 60.5516 114.334Z" fill="#263238"/>
<path d="M63.0999 114.335C62.959 114.335 62.8403 100.165 62.8403 82.682C62.8403 65.1995 62.959 51.0292 63.0999 51.0292C63.2409 51.0292 63.3595 65.1995 63.3595 82.682C63.3595 100.157 63.2409 114.335 63.0999 114.335Z" fill="#263238"/>
<path d="M65.6419 114.335C65.501 114.335 65.3823 100.165 65.3823 82.682C65.3823 65.1995 65.501 51.0292 65.6419 51.0292C65.7828 51.0292 65.9015 65.1995 65.9015 82.682C65.9015 100.157 65.7828 114.335 65.6419 114.335Z" fill="#263238"/>
<path d="M68.1966 114.335C68.0557 114.335 67.937 100.164 67.937 82.6819C67.937 65.1993 68.0557 51.0291 68.1966 51.0291C68.3375 51.0291 68.4562 65.1993 68.4562 82.6819C68.4562 100.157 68.3375 114.335 68.1966 114.335Z" fill="#263238"/>
<path d="M70.7393 114.334C70.5984 114.334 70.4797 100.164 70.4797 82.6816C70.4797 65.1991 70.5984 51.0289 70.7393 51.0289C70.8803 51.0289 70.9989 65.1991 70.9989 82.6816C70.9989 100.157 70.8803 114.334 70.7393 114.334Z" fill="#263238"/>
<path d="M73.2833 114.335C73.1424 114.335 73.0237 100.164 73.0237 82.6819C73.0237 65.1994 73.1424 51.0292 73.2833 51.0292C73.4242 51.0292 73.5429 65.1994 73.5429 82.6819C73.5503 100.157 73.4316 114.335 73.2833 114.335Z" fill="#263238"/>
<path d="M75.8372 114.334C75.6963 114.334 75.5776 100.164 75.5776 82.6816C75.5776 65.199 75.6963 51.0288 75.8372 51.0288C75.9782 51.0288 76.0968 65.199 76.0968 82.6816C76.0968 100.157 75.9782 114.334 75.8372 114.334Z" fill="#263238"/>
<path d="M78.3792 114.335C78.2383 114.335 78.1196 100.164 78.1196 82.6819C78.1196 65.1993 78.2383 51.0291 78.3792 51.0291C78.5202 51.0291 78.6388 65.1993 78.6388 82.6819C78.6388 100.157 78.5276 114.335 78.3792 114.335Z" fill="#263238"/>
<path d="M80.9295 114.335C80.7886 114.335 80.6699 100.165 80.6699 82.682C80.6699 65.1995 80.7886 51.0292 80.9295 51.0292C81.0704 51.0292 81.1891 65.1995 81.1891 82.682C81.1891 100.157 81.0704 114.335 80.9295 114.335Z" fill="#263238"/>
<path d="M83.474 114.335C83.333 114.335 83.2144 100.164 83.2144 82.6818C83.2144 65.1992 83.333 51.029 83.474 51.029C83.6149 51.029 83.7336 65.1992 83.7336 82.6818C83.7336 100.157 83.6223 114.335 83.474 114.335Z" fill="#263238"/>
<path d="M86.0269 114.334C85.886 114.334 85.7673 100.164 85.7673 82.6816C85.7673 65.199 85.886 51.0288 86.0269 51.0288C86.1679 51.0288 86.2865 65.199 86.2865 82.6816C86.2865 100.157 86.1679 114.334 86.0269 114.334Z" fill="#263238"/>
<path d="M88.5721 114.335C88.4312 114.335 88.3125 100.164 88.3125 82.6819C88.3125 65.1994 88.4312 51.0292 88.5721 51.0292C88.713 51.0292 88.8317 65.1994 88.8317 82.6819C88.8317 100.157 88.7204 114.335 88.5721 114.335Z" fill="#263238"/>
<path d="M91.1231 114.335C90.9822 114.335 90.8635 100.164 90.8635 82.6819C90.8635 65.1994 90.9822 51.0292 91.1231 51.0292C91.2641 51.0292 91.3827 65.1994 91.3827 82.6819C91.3827 100.157 91.2641 114.335 91.1231 114.335Z" fill="#263238"/>
<path d="M93.6668 114.335C93.5259 114.335 93.4072 100.165 93.4072 82.6822C93.4072 65.1996 93.5259 51.0294 93.6668 51.0294C93.8078 51.0294 93.9264 65.1996 93.9264 82.6822C93.9264 100.157 93.8078 114.335 93.6668 114.335Z" fill="#263238"/>
<path d="M96.2183 114.335C96.0774 114.335 95.9587 100.165 95.9587 82.682C95.9587 65.1995 96.0774 51.0292 96.2183 51.0292C96.3593 51.0292 96.4779 65.1995 96.4779 82.682C96.4779 100.157 96.3593 114.335 96.2183 114.335Z" fill="#263238"/>
<path d="M180.485 71.861C180.285 72.9156 183.667 95.3964 186.448 105.935C189.23 116.466 198.843 145.623 200.6 149.998L213.417 136.823C213.417 136.823 202.952 115.939 201.958 109.24C200.964 102.541 196.388 91.4305 193.005 84.2043C189.623 76.9781 187.042 69.5736 187.042 69.5736L180.485 71.861Z" fill="#FFBF9D"/>
<path d="M182.747 50.9473C182.747 50.9473 180.336 53.8808 179.817 55.5147C179.298 57.156 178.267 62.9266 178.356 65.2586C178.445 67.5832 180.655 73.9107 180.655 73.9107L188.555 73.6285L187.687 70.4944C187.687 70.4944 194.971 66.2018 194.8 64.3971C194.629 62.585 188.859 53.9625 188.34 53.5318C187.82 53.101 186.53 53.5318 185.84 54.0516C185.15 54.5715 183.17 57.6759 183.17 57.6759C183.17 57.6759 184.104 54.6829 184.379 53.6209C185.069 50.9473 182.747 50.9473 182.747 50.9473Z" fill="#FFBF9D"/>
<path d="M260.917 97.9655C264.93 98.879 268.35 102.021 269.306 105.674C270.263 109.328 268.72 113.302 265.501 115.433C267.237 116.792 267.304 119.51 265.635 120.773C263.966 122.028 260.999 121.493 259.812 119.726C260.272 121.746 258.633 123.751 256.489 124.256C254.346 124.761 251.92 123.952 250.207 122.541C248.501 121.122 247.433 119.176 246.758 117.193L250.111 101.308C252.506 98.4111 256.905 97.052 260.917 97.9655Z" fill="#263238"/>
<path d="M256.097 121.746C258.292 120.179 259.049 116.904 257.758 114.535C259.153 113.577 259.39 111.512 258.745 109.937C258.1 108.37 256.802 107.182 255.541 106.053C255.867 102.095 252.5 98.218 248.546 97.9804C247.486 94.5641 243.532 92.8708 239.965 92.8262C239.089 92.8114 238.199 92.8708 237.369 92.6108C236.76 92.4177 236.211 92.0687 235.633 91.8013C232.436 90.3308 228.409 91.6676 226.161 94.3784C225.805 94.8092 225.471 95.2845 225.012 95.6112C224.411 96.0346 223.654 96.1682 222.964 96.4282C221.474 96.9926 220.25 98.2403 219.723 99.7479C219.271 101.025 219.263 102.533 218.358 103.543C217.906 104.048 217.268 104.375 216.867 104.924C215.71 106.514 217.127 108.942 216.192 110.68C216 111.037 215.725 111.334 215.51 111.675C215.065 112.366 214.887 113.22 215.006 114.037C215.102 114.661 215.377 115.292 215.228 115.909C215.117 116.376 214.776 116.755 214.546 117.178C213.982 118.211 215.065 123.194 215.836 124.085L244.229 133.042C246.521 133.265 248.865 131.846 249.748 129.715C249.896 129.358 250.022 128.965 250.334 128.749C250.601 128.564 250.942 128.541 251.268 128.482C253.405 128.059 254.391 125.608 254.829 123.469C254.888 123.172 254.947 122.86 255.11 122.6C255.326 122.229 255.734 121.998 256.097 121.746Z" fill="#263238"/>
<path d="M247.923 119.296C249.548 114.275 248.153 107.517 243.903 103.514C241.226 100.996 238.763 100.231 237.168 99.5329C233.586 97.9659 230.026 98.8868 230.026 98.8868C228.342 98.7754 220.984 102.288 218.944 107.918C216.675 114.171 214.153 121.895 213.508 126.871C212.217 136.875 219.182 140.246 219.182 140.246C219.189 140.231 213.678 155.85 213.678 155.85L235.5 154.142L247.923 119.296Z" fill="#FFBF9D"/>
<path d="M227.436 129.574C227.54 129.099 227.555 127.94 227.325 127.547C226.872 126.767 225.827 127.042 224.966 127.272C224.106 127.502 223.453 127.755 223.453 127.755L223.535 129.24C223.735 129.908 223.98 130.807 224.61 131.097C224.707 131.141 224.81 131.178 224.914 131.215C225.419 131.379 225.886 131.468 226.398 131.238C226.917 131.007 227.31 130.168 227.436 129.574Z" fill="#FF9A6C"/>
<path d="M218.692 115.418C218.781 115.626 219.938 115.292 221.228 115.767C222.519 116.228 223.223 117.238 223.424 117.134C223.52 117.089 223.468 116.747 223.172 116.302C222.875 115.856 222.289 115.307 221.488 115.017C220.687 114.727 219.901 114.772 219.404 114.935C218.884 115.091 218.647 115.322 218.692 115.418Z" fill="#263238"/>
<path d="M224.706 124.917C224.736 124.843 223.957 124.464 222.681 123.9C222.355 123.766 222.058 123.603 222.066 123.358C222.058 123.09 222.303 122.771 222.585 122.422C223.141 121.702 223.72 120.944 224.335 120.149C226.79 116.904 228.667 114.193 228.541 114.097C228.407 114 226.316 116.547 223.861 119.793C223.267 120.595 222.696 121.36 222.147 122.095C221.91 122.444 221.561 122.808 221.584 123.365C221.598 123.64 221.791 123.9 221.991 124.019C222.184 124.145 222.377 124.204 222.54 124.264C223.853 124.739 224.684 124.992 224.706 124.917Z" fill="#263238"/>
<path d="M219.175 140.247C219.175 140.247 225.517 142.564 233.008 140.604C233.008 140.604 227.631 146.337 218.337 142.639L219.175 140.247Z" fill="#FF9A6C"/>
<path d="M222.464 107.211C222.59 107.597 223.666 107.679 224.815 108.124C225.98 108.533 226.847 109.164 227.196 108.956C227.352 108.852 227.315 108.496 227.003 108.05C226.692 107.612 226.084 107.107 225.29 106.81C224.496 106.52 223.71 106.505 223.191 106.647C222.664 106.78 222.412 107.025 222.464 107.211Z" fill="#263238"/>
<path d="M236.006 121.234C235.806 121.345 235.116 120.358 233.81 119.92C232.512 119.467 231.333 119.816 231.244 119.615C231.2 119.519 231.444 119.288 231.964 119.125C232.475 118.962 233.269 118.902 234.085 119.177C234.893 119.452 235.479 119.979 235.769 120.417C236.065 120.855 236.102 121.19 236.006 121.234Z" fill="#263238"/>
<path d="M239.504 112.894C239.148 113.101 238.243 112.463 237.042 112.039C235.855 111.579 234.742 111.49 234.609 111.104C234.557 110.918 234.816 110.673 235.358 110.547C235.892 110.413 236.708 110.435 237.531 110.732C238.354 111.037 238.985 111.542 239.304 111.987C239.63 112.44 239.667 112.79 239.504 112.894Z" fill="#263238"/>
<path d="M243.731 127.903C243.939 127.19 245.259 125.757 245.993 125.854C247.952 126.114 251.289 127.257 249.925 132.033C248.055 138.561 241.892 135.338 241.936 135.145C241.959 134.996 243.004 130.354 243.731 127.903Z" fill="#FFBF9D"/>
<path d="M244.411 133.272C244.448 133.257 244.5 133.383 244.67 133.524C244.834 133.665 245.138 133.814 245.516 133.784C246.28 133.732 247.17 132.797 247.541 131.631C247.726 131.044 247.763 130.442 247.689 129.908C247.63 129.373 247.415 128.95 247.081 128.786C246.762 128.608 246.451 128.742 246.324 128.905C246.184 129.061 246.191 129.202 246.154 129.209C246.132 129.224 246.043 129.061 246.176 128.808C246.243 128.69 246.362 128.556 246.547 128.474C246.74 128.393 246.992 128.393 247.222 128.489C247.712 128.667 248.038 129.261 248.119 129.841C248.231 130.435 248.201 131.111 247.993 131.772C247.578 133.079 246.547 134.111 245.531 134.119C245.041 134.104 244.693 133.859 244.544 133.651C244.374 133.435 244.381 133.279 244.411 133.272Z" fill="#FF9A6C"/>
<path d="M217.467 107.583C219.025 107.145 220.189 106.276 220.567 104.702C221.361 105.221 222.577 104.353 223.312 103.751C224.039 103.142 224.78 102.949 225.003 102.028C225.047 101.842 225.092 101.649 225.225 101.516C225.433 101.308 225.767 101.315 226.056 101.308C227.569 101.285 229.045 100.424 229.817 99.1167C231.033 100.142 232.502 100.855 234.059 101.166C234.445 102.34 235.469 103.291 236.663 103.588C237.864 103.885 239.207 103.521 240.097 102.667C240.253 103.595 240.942 104.367 241.751 104.85C242.559 105.333 243.494 105.563 244.406 105.793C243.501 107.427 244.058 109.715 245.615 110.747C245.823 110.888 246.075 111.037 246.112 111.282C246.157 111.542 245.956 111.772 245.801 111.98C244.792 113.302 245.23 115.47 246.669 116.302C245.363 116.815 244.911 118.76 245.853 119.8C246.045 120.016 246.305 120.275 246.186 120.543C246.142 120.647 246.053 120.714 245.964 120.78C245.289 121.286 244.599 121.843 244.302 122.63C244.006 123.417 244.288 124.479 245.081 124.754C244.547 125.006 244.013 125.37 243.835 125.935C243.657 126.499 244.065 127.242 244.651 127.197C244.903 127.175 248.33 127.494 248.53 127.346C251.111 125.385 249.606 121.939 250.333 118.783C251.059 115.626 250.867 112.299 250.11 109.15C249.791 107.828 249.376 106.521 248.723 105.325C247.981 103.966 246.95 102.786 245.919 101.634C244.577 100.127 243.182 98.6043 241.432 97.6016C238.161 95.7375 234.141 95.9381 230.417 96.4876C229.001 96.6956 227.577 96.9555 226.271 97.5348C224.706 98.2255 223.371 99.3544 222.147 100.55C220.375 102.28 218.758 104.226 217.83 106.529" fill="#263238"/>
<path d="M216.86 104.932C216.86 104.932 217.001 104.679 217.416 104.338C217.616 104.16 217.891 103.966 218.165 103.699C218.44 103.432 218.707 103.06 218.892 102.593C219.085 102.125 219.204 101.575 219.337 100.973C219.471 100.372 219.619 99.7035 219.96 99.0574C220.294 98.4113 220.776 97.78 221.421 97.2601C221.74 97.0002 222.104 96.7625 222.497 96.5769C222.89 96.3838 223.32 96.2501 223.75 96.1164C224.181 95.9827 224.618 95.8268 224.989 95.552C225.36 95.2772 225.657 94.8984 225.968 94.5048C226.591 93.725 227.37 93.012 228.29 92.455C229.209 91.898 230.248 91.4524 231.383 91.2593C231.946 91.1405 232.532 91.1256 233.126 91.1331C233.712 91.1776 234.313 91.2519 234.891 91.445C235.18 91.5267 235.462 91.6604 235.744 91.7718C236.018 91.9054 236.293 92.0465 236.56 92.1877C237.101 92.4699 237.68 92.663 238.296 92.7075C238.911 92.7669 239.542 92.7224 240.187 92.7521C240.832 92.7669 241.485 92.8486 242.13 92.9749C242.776 93.0937 243.413 93.2942 244.044 93.5245C244.667 93.7696 245.275 94.074 245.846 94.4454C246.981 95.1955 247.982 96.2501 248.479 97.5795C248.531 97.7131 248.576 97.8394 248.628 97.9731L248.539 97.8988C250.638 98.0251 252.537 99.1688 253.805 100.691C255.088 102.214 255.785 104.189 255.622 106.083L255.592 106.001C256.267 106.61 256.935 107.212 257.514 107.88C258.092 108.549 258.589 109.284 258.886 110.101C259.175 110.918 259.234 111.787 259.064 112.604C258.901 113.413 258.456 114.171 257.788 114.624L257.818 114.512C258.47 115.723 258.574 117.097 258.329 118.3C258.085 119.511 257.499 120.58 256.698 121.338C256.505 121.538 256.282 121.694 256.075 121.857C255.86 122.006 255.644 122.147 255.452 122.303C255.266 122.466 255.118 122.652 255.029 122.875C254.94 123.09 254.895 123.328 254.851 123.558C254.65 124.479 254.383 125.303 254.05 126.009C253.709 126.715 253.308 127.294 252.856 127.702C252.41 128.111 251.928 128.348 251.528 128.46C251.127 128.579 250.801 128.579 250.601 128.653C250.4 128.712 250.311 128.787 250.304 128.779C250.304 128.779 250.386 128.697 250.593 128.631C250.794 128.549 251.12 128.542 251.513 128.415C251.906 128.296 252.366 128.059 252.804 127.65C253.241 127.249 253.634 126.67 253.961 125.972C254.287 125.274 254.547 124.449 254.732 123.536C254.784 123.306 254.821 123.068 254.917 122.83C255.007 122.593 255.17 122.377 255.37 122.207C255.563 122.036 255.785 121.895 256 121.746C256.201 121.583 256.423 121.434 256.601 121.241C257.38 120.506 257.944 119.451 258.181 118.27C258.418 117.097 258.307 115.76 257.677 114.594L257.64 114.527L257.706 114.483C258.329 114.059 258.745 113.346 258.901 112.567C259.064 111.787 258.997 110.948 258.723 110.168C258.441 109.388 257.959 108.668 257.387 108.014C256.816 107.353 256.156 106.759 255.474 106.15L255.437 106.12L255.444 106.068C255.592 104.234 254.918 102.31 253.664 100.825C252.425 99.3396 250.578 98.233 248.539 98.1068L248.472 98.0993L248.45 98.0325C248.405 97.9062 248.353 97.78 248.309 97.6537C247.827 96.3763 246.855 95.344 245.75 94.6162C245.186 94.2597 244.6 93.9552 243.985 93.7176C243.369 93.4873 242.746 93.3017 242.108 93.1754C241.47 93.0566 240.832 92.9675 240.202 92.96C239.571 92.9303 238.933 92.9749 238.296 92.908C237.977 92.8783 237.665 92.8264 237.354 92.7298C237.049 92.6333 236.76 92.507 236.486 92.3659C236.211 92.2248 235.944 92.0837 235.67 91.95C235.395 91.8386 235.121 91.7123 234.839 91.6306C234.275 91.445 233.697 91.3707 233.118 91.3187C232.54 91.3113 231.969 91.3262 231.42 91.4376C230.307 91.6232 229.284 92.054 228.379 92.6036C227.474 93.1457 226.702 93.8438 226.087 94.6088C225.775 94.9875 225.471 95.3886 225.078 95.6782C224.678 95.9679 224.225 96.1164 223.795 96.2575C223.357 96.3912 222.942 96.5174 222.556 96.7031C222.171 96.8888 221.822 97.1116 221.503 97.3641C220.873 97.8691 220.39 98.4855 220.064 99.1168C219.73 99.7481 219.575 100.402 219.434 101.003C219.293 101.605 219.167 102.162 218.966 102.63C218.774 103.105 218.499 103.484 218.21 103.751C217.921 104.018 217.646 104.212 217.446 104.375C217.238 104.538 217.09 104.687 217.001 104.783C216.904 104.873 216.867 104.932 216.86 104.932Z" fill="#455A64"/>
<path d="M245.913 95.6484C245.898 95.6633 245.772 95.4999 245.498 95.2474C245.23 95.0023 244.8 94.6681 244.199 94.4156C243.606 94.1556 242.82 93.9848 241.967 94.0888C241.121 94.2002 240.209 94.5864 239.497 95.2771C239.289 95.4776 239.104 95.693 238.956 95.9158C238.815 96.1386 238.726 96.3985 238.8 96.6139L238.896 96.8813L238.659 96.7327C237.999 96.3168 237.212 96.2351 236.575 96.3762C235.929 96.5173 235.432 96.8887 235.113 97.2526C234.787 97.6239 234.631 97.9953 234.542 98.2478C234.453 98.5077 234.431 98.6562 234.416 98.6562C234.409 98.6562 234.409 98.6191 234.416 98.5449C234.424 98.4706 234.438 98.3666 234.476 98.2329C234.542 97.9656 234.691 97.5719 235.017 97.1709C235.336 96.7773 235.848 96.3688 236.538 96.2054C237.212 96.042 238.051 96.1163 238.763 96.5619L238.614 96.6807C238.511 96.3688 238.629 96.0495 238.785 95.8044C238.948 95.5519 239.141 95.3365 239.356 95.1211C240.105 94.4007 241.055 93.9997 241.945 93.8957C242.842 93.7917 243.651 93.9923 244.259 94.2745C244.874 94.5567 245.29 94.9132 245.549 95.188C245.676 95.3216 245.772 95.433 245.824 95.5147C245.891 95.5964 245.92 95.641 245.913 95.6484Z" fill="#455A64"/>
<path d="M254.251 106.262C254.258 106.269 254.154 106.336 253.954 106.425C253.754 106.514 253.457 106.633 253.064 106.715C252.678 106.796 252.181 106.841 251.655 106.722C251.128 106.603 250.557 106.299 250.186 105.757L250.334 105.779C250.245 105.846 250.156 105.92 250.067 105.987C249.971 106.054 249.867 106.113 249.771 106.18C249.148 106.536 248.465 106.7 247.842 106.707C247.226 106.722 246.67 106.611 246.233 106.44C245.795 106.269 245.483 106.061 245.276 105.905C245.075 105.734 244.979 105.63 244.994 105.623C245.016 105.586 245.424 106.009 246.284 106.306C246.707 106.447 247.241 106.544 247.835 106.522C248.428 106.499 249.073 106.336 249.667 106.002C249.763 105.942 249.86 105.883 249.949 105.823C250.038 105.757 250.119 105.69 250.201 105.623L250.29 105.556L250.349 105.645C250.675 106.135 251.202 106.425 251.692 106.551C252.189 106.677 252.656 106.648 253.034 106.588C253.806 106.447 254.243 106.224 254.251 106.262Z" fill="#455A64"/>
<path d="M255.903 113.325C255.911 113.325 255.888 113.369 255.851 113.443C255.807 113.51 255.733 113.614 255.614 113.718C255.377 113.926 254.932 114.134 254.361 114.104C253.782 114.082 253.152 113.778 252.566 113.347C252.269 113.131 251.965 112.909 251.661 112.634C251.371 112.366 251.067 112.01 251.008 111.55C251.008 111.512 251.001 111.468 251.001 111.431L251.141 111.52C250.37 111.824 249.599 112.062 248.872 112.107C248.145 112.166 247.477 112.01 246.988 111.75C246.498 111.498 246.179 111.163 246.016 110.903C245.935 110.777 245.883 110.666 245.853 110.591C245.823 110.517 245.816 110.473 245.816 110.473C245.831 110.465 245.898 110.621 246.076 110.859C246.254 111.097 246.572 111.394 247.047 111.624C247.522 111.854 248.152 111.988 248.85 111.921C249.547 111.861 250.296 111.631 251.06 111.334L251.186 111.282L251.201 111.423C251.201 111.453 251.208 111.49 251.208 111.52C251.26 111.906 251.52 112.225 251.794 112.485C252.076 112.745 252.388 112.975 252.677 113.191C253.248 113.622 253.841 113.919 254.375 113.956C254.909 114 255.332 113.83 255.57 113.651C255.807 113.466 255.881 113.31 255.903 113.325Z" fill="#455A64"/>
<path d="M225.901 131.297C225.886 131.245 226.45 131.275 226.887 130.658C227.288 130.064 227.496 128.913 227.229 127.836C227.147 127.576 227.006 127.405 226.791 127.346C226.576 127.279 226.309 127.309 226.057 127.346C225.545 127.413 225.085 127.487 224.699 127.554C223.928 127.695 223.453 127.799 223.438 127.747C223.424 127.695 223.876 127.502 224.64 127.294C225.026 127.19 225.485 127.086 226.005 126.997C226.264 126.96 226.561 126.9 226.895 126.989C227.243 127.071 227.51 127.405 227.599 127.725C227.896 128.98 227.629 130.153 227.102 130.836C226.828 131.171 226.487 131.312 226.257 131.349C226.027 131.371 225.901 131.319 225.901 131.297Z" fill="#263238"/>
<path d="M270.656 101.122C270.612 101.13 270.619 100.617 270.233 99.8224C269.87 99.05 269.032 97.9434 267.548 97.4458C266.821 97.2008 265.939 97.1785 265.078 97.4607C264.225 97.7503 263.395 98.3296 262.809 99.1614C262.238 99.9709 261.867 101.115 262.327 102.095C262.527 102.578 263.024 102.875 263.521 102.726C264.01 102.585 264.433 102.14 264.685 101.635C265.227 100.61 265.219 99.3694 264.834 98.3445C264.463 97.3047 263.714 96.4655 262.816 95.9828C261.006 94.995 258.952 95.2178 257.572 95.8937C256.148 96.5695 255.265 97.5424 254.724 98.2331C254.183 98.9312 253.96 99.3768 253.923 99.3545C253.908 99.3471 253.96 99.2357 254.064 99.0203C254.175 98.8124 254.338 98.5079 254.605 98.1365C255.117 97.4161 255.992 96.3764 257.461 95.6411C258.885 94.9059 261.043 94.6311 262.994 95.6709C263.958 96.1759 264.789 97.0894 265.197 98.2108C265.612 99.3174 265.635 100.669 265.034 101.813C264.745 102.377 264.285 102.905 263.625 103.098C263.298 103.187 262.927 103.15 262.631 102.979C262.327 102.815 262.119 102.541 261.985 102.251C261.726 101.679 261.689 101.055 261.822 100.476C261.956 99.9115 262.2 99.3917 262.519 98.946C263.157 98.0548 264.055 97.4458 264.982 97.1488C265.909 96.8591 266.866 96.8963 267.637 97.1785C269.21 97.7429 270.033 98.9312 270.374 99.7481C270.723 100.602 270.656 101.122 270.656 101.122Z" fill="#263238"/>
<path d="M213.454 97.6835C213.447 97.6761 213.469 97.6018 213.551 97.483C213.632 97.3642 213.781 97.1934 214.011 97.0374C214.241 96.8814 214.574 96.7403 214.975 96.7106C215.376 96.6735 215.872 96.77 216.288 97.0894C217.141 97.7355 217.504 98.9535 217.756 100.194C217.831 100.506 217.905 100.832 217.986 101.159C218.061 101.479 218.15 101.835 218.09 102.244C218.061 102.444 217.964 102.659 217.794 102.815C217.623 102.971 217.393 103.046 217.178 103.046C216.748 103.046 216.34 102.853 216.073 102.518C215.546 101.85 215.576 100.929 215.954 100.268C216.34 99.5848 217.096 99.2431 217.771 99.2134C218.461 99.1689 219.114 99.4288 219.574 99.815C220.034 100.209 220.338 100.699 220.508 101.167C220.842 102.132 220.694 102.971 220.545 103.491C220.39 104.019 220.219 104.278 220.204 104.271C220.174 104.256 220.293 103.981 220.397 103.454C220.493 102.942 220.59 102.132 220.249 101.263C220.078 100.832 219.789 100.394 219.373 100.06C218.958 99.7259 218.394 99.5179 217.801 99.5625C217.215 99.5996 216.592 99.8967 216.295 100.454C215.984 100.996 215.976 101.768 216.384 102.273C216.57 102.511 216.896 102.667 217.185 102.659C217.482 102.659 217.69 102.466 217.734 102.177C217.779 101.887 217.719 101.553 217.638 101.234C217.564 100.907 217.497 100.595 217.43 100.283C217.193 99.0426 216.859 97.8915 216.139 97.3196C215.413 96.7329 214.537 96.9409 214.107 97.1859C213.632 97.4236 213.484 97.7058 213.454 97.6835Z" fill="#263238"/>
<path d="M244.985 94.9578C244.94 94.9356 245.222 94.6311 245.304 93.9552C245.385 93.3017 245.163 92.2248 244.273 91.393C243.383 90.5612 241.803 90.2641 240.208 90.6206C239.407 90.7914 238.576 91.0811 237.842 91.5935C237.123 92.0837 236.485 92.8635 236.514 93.7844L236.173 93.6656C236.507 93.2497 236.663 92.663 236.581 92.0837C236.448 91.0737 235.773 90.1527 234.89 89.7591C234 89.3432 232.991 89.3358 232.094 89.514C230.291 89.8928 228.778 90.8137 227.859 91.8535C226.924 92.9081 226.664 94.0963 226.664 94.8687C226.672 95.656 226.872 96.0719 226.835 96.0867C226.828 96.0941 226.768 95.9902 226.694 95.7896C226.62 95.5891 226.538 95.2772 226.516 94.8687C226.464 94.0666 226.687 92.8041 227.651 91.6752C228.6 90.5538 230.128 89.5809 232.027 89.165C232.969 88.9719 234.052 88.9645 235.046 89.4175C236.055 89.8631 236.804 90.8806 236.959 92.0317C237.056 92.7001 236.878 93.4057 236.462 93.9032L236.136 94.3043L236.121 93.7844C236.092 92.6704 236.856 91.7941 237.627 91.2742C238.421 90.732 239.296 90.435 240.134 90.2716C241.803 89.9225 243.494 90.2493 244.443 91.1925C245.385 92.1208 245.571 93.272 245.437 93.9627C245.385 94.3191 245.244 94.5642 245.155 94.7276C245.052 94.891 244.992 94.9653 244.985 94.9578Z" fill="#263238"/>
<path d="M240.593 126.826C240.586 126.834 240.519 126.789 240.393 126.693C240.274 126.596 240.111 126.425 239.918 126.195C239.562 125.72 239.132 124.91 239.103 123.811C239.043 122.734 239.555 121.36 240.742 120.499C241.32 120.068 242.047 119.756 242.841 119.674C243.234 119.659 243.642 119.585 244.094 119.852C244.317 119.994 244.435 120.306 244.384 120.558C244.346 120.811 244.206 121.041 243.99 121.182C243.56 121.457 243.071 121.39 242.678 121.256C242.277 121.115 241.921 120.87 241.654 120.565C241.113 119.964 240.853 119.162 240.927 118.419C241.001 117.676 241.372 117.038 241.825 116.577C242.277 116.117 242.826 115.82 243.353 115.679C244.421 115.396 245.318 115.642 245.86 115.849C246.416 116.08 246.668 116.295 246.653 116.317C246.638 116.347 246.356 116.176 245.808 115.991C245.266 115.827 244.406 115.642 243.427 115.939C242.485 116.206 241.409 117.134 241.276 118.456C241.224 119.095 241.454 119.8 241.928 120.32C242.166 120.573 242.462 120.788 242.804 120.9C243.137 121.018 243.523 121.041 243.783 120.87C244.028 120.714 244.102 120.306 243.879 120.179C243.657 120.023 243.234 120.038 242.885 120.068C242.173 120.135 241.506 120.409 240.964 120.803C239.859 121.583 239.37 122.816 239.384 123.826C239.384 124.851 239.748 125.645 240.052 126.121C240.363 126.589 240.616 126.804 240.593 126.826Z" fill="#263238"/>
<path d="M277.629 107.175C277.614 107.205 277.295 107.034 276.694 106.855C276.093 106.67 275.173 106.506 274.061 106.648C273.505 106.722 272.904 106.878 272.318 107.16C271.739 107.442 271.079 107.814 270.805 108.437C270.671 108.742 270.649 109.121 270.812 109.403C270.968 109.685 271.309 109.863 271.673 109.878C272.422 109.938 273.074 109.314 273.579 108.653C274.105 107.977 274.521 107.242 274.654 106.469C274.788 105.704 274.617 104.91 274.165 104.382C273.705 103.848 273.008 103.632 272.37 103.528C271.717 103.432 271.087 103.395 270.53 103.387C269.403 103.365 268.528 103.721 268.053 104.13C267.571 104.531 267.452 104.887 267.415 104.865C267.408 104.865 267.422 104.769 267.497 104.613C267.571 104.457 267.712 104.241 267.949 104.011C268.409 103.543 269.351 103.12 270.523 103.105C271.109 103.09 271.732 103.112 272.414 103.201C273.082 103.298 273.868 103.506 274.432 104.137C274.981 104.761 275.173 105.667 275.025 106.529C274.877 107.39 274.424 108.185 273.875 108.883C273.601 109.232 273.304 109.574 272.933 109.848C272.57 110.116 272.103 110.294 271.635 110.257C271.183 110.235 270.708 110.004 270.478 109.581C270.248 109.158 270.3 108.675 270.464 108.296C270.842 107.509 271.561 107.16 272.169 106.863C272.8 106.581 273.438 106.432 274.016 106.373C275.188 106.254 276.13 106.477 276.731 106.707C277.035 106.818 277.258 106.937 277.406 107.019C277.562 107.115 277.636 107.167 277.629 107.175Z" fill="#263238"/>
<path d="M294.028 93.7847C294.028 93.7847 275.64 113.25 270.819 117.558C266.25 121.642 247.344 138.063 247.344 138.063L254.041 157.224C254.041 157.224 272.807 135.917 276.352 131.119L292.218 110.034C294.376 106.819 301.141 97.8174 301.141 97.8174L294.028 93.7847Z" fill="#FFBF9D"/>
<path d="M294.028 93.6143C294.028 93.6143 293.59 89.4256 293.368 88.4601C293.145 87.502 291.966 84.4719 292.262 82.9272C292.559 81.375 294.992 78.5008 295.949 77.5354C296.906 76.5773 298.604 76.2802 299.19 77.5354C299.19 77.5354 301.252 77.6839 301.697 78.4934C302.142 79.3029 302.29 79.9713 302.29 79.9713L304.946 79.4515C304.946 79.4515 305.539 81.0037 304.501 81.8874C304.501 81.8874 305.828 81.9617 306.051 83.0683C306.273 84.1749 305.828 86.388 305.532 86.6851C305.235 86.9822 303.692 88.3116 303.692 88.3116C303.692 88.3116 304.575 94.1416 303.915 95.3224C303.255 96.5033 298.523 99.667 298.523 99.667L294.028 93.6143Z" fill="#FFBF9D"/>
<path d="M300.963 87.3535C301.297 87.9031 302.246 88.6012 302.847 88.371C303.448 88.1407 303.878 87.5837 304.115 86.9896C304.353 86.3955 304.412 85.7345 304.471 85.0958C304.531 84.4422 304.597 83.7812 304.657 83.1277" fill="#FFBF9D"/>
<path d="M304.657 83.1205C304.709 83.128 304.716 83.581 304.679 84.3162C304.657 84.6876 304.635 85.1183 304.597 85.6085C304.553 86.0987 304.471 86.6482 304.234 87.1978C303.997 87.74 303.596 88.2004 303.114 88.4381C302.899 88.5718 302.558 88.6163 302.335 88.5421C302.098 88.4826 301.905 88.3787 301.749 88.2747C301.104 87.8365 300.919 87.3612 300.963 87.3464C301.008 87.3092 301.267 87.7028 301.89 88.037C302.194 88.193 302.595 88.3564 302.951 88.1187C303.337 87.9108 303.67 87.5097 303.878 87.0344C304.286 86.0615 304.271 85.0069 304.405 84.2865C304.516 83.5661 304.605 83.1205 304.657 83.1205Z" fill="#FF9A6C"/>
<path d="M295.525 82.2512C296.259 82.1175 296.86 81.4343 296.905 80.6842C296.831 81.1298 296.764 81.5902 296.831 82.0358C296.897 82.4814 297.12 82.9345 297.52 83.1573C298.143 83.5063 298.967 83.1647 299.404 82.6003C300.079 81.7239 300.05 80.5134 299.99 79.4068C299.946 78.6121 300.02 77.201 298.448 76.7109" fill="#FFBF9D"/>
<path d="M298.448 76.7034C298.455 76.6886 298.656 76.696 298.982 76.852C299.301 77.0005 299.753 77.3718 299.961 78.0105C300.065 78.3225 300.117 78.6789 300.139 79.0503C300.161 79.4142 300.198 79.8078 300.206 80.2311C300.213 81.0481 300.146 82.0878 299.419 82.875C299.078 83.2315 298.611 83.4618 298.129 83.4766C297.632 83.5063 297.165 83.2018 296.942 82.8231C296.705 82.4517 296.645 82.0284 296.653 81.6571C296.66 81.2857 296.727 80.9515 296.779 80.6545L297.061 80.6842C296.979 81.4565 296.482 81.9096 296.134 82.0952C295.77 82.2883 295.533 82.2661 295.533 82.2512C295.525 82.2141 295.741 82.1769 296.045 81.9616C296.334 81.7536 296.742 81.3154 296.772 80.6693L297.053 80.699C296.979 81.2857 296.853 82.0284 297.239 82.63C297.424 82.927 297.743 83.1201 298.114 83.0979C298.478 83.083 298.863 82.8973 299.138 82.6077C299.738 81.9616 299.842 81.0258 299.842 80.2311C299.82 79.4216 299.85 78.6567 299.694 78.0922C299.546 77.5129 299.182 77.1639 298.9 76.9782C298.618 76.8 298.433 76.7406 298.448 76.7034Z" fill="#FF9A6C"/>
<path d="M294.702 86.6848C296.008 84.947 297.335 83.1943 299.027 81.8203C300.71 80.4464 302.824 79.4809 304.997 79.5774C305.242 80.3573 304.901 81.2188 304.367 81.8352C303.833 82.4516 303.128 82.8898 302.476 83.3799C301.823 83.8775 301.2 84.4717 300.948 85.244C300.621 86.2615 300.985 87.3532 301.192 88.4004C301.637 90.6656 301.296 93.0867 300.228 95.1365" fill="#FFBF9D"/>
<path d="M300.228 95.1438C300.198 95.1289 300.391 94.7427 300.643 94.0223C300.888 93.302 301.192 92.2177 301.229 90.8511C301.252 90.1679 301.214 89.4178 301.066 88.638C300.933 87.8507 300.629 87.0189 300.636 86.0535C300.643 85.5781 300.769 85.0657 301.029 84.6275C301.289 84.1893 301.645 83.818 302.038 83.4912C302.817 82.8377 303.736 82.3475 304.352 81.5454C304.782 80.981 305.005 80.2457 304.812 79.6368L304.982 79.7704C303.18 79.6887 301.519 80.3497 300.221 81.1667C298.908 81.991 297.921 82.9862 297.135 83.8329C296.356 84.6944 295.77 85.4296 295.362 85.9272C294.954 86.4248 294.724 86.6996 294.702 86.6847C294.68 86.6699 294.873 86.3728 295.251 85.8455C295.629 85.3182 296.178 84.5607 296.942 83.6695C297.714 82.7857 298.7 81.7534 300.035 80.8844C301.363 80.0304 303.084 79.3174 304.997 79.3917L305.131 79.3991L305.168 79.5254C305.413 80.2977 305.131 81.1518 304.656 81.7757C303.966 82.6669 303.017 83.157 302.283 83.7809C301.526 84.3824 300.985 85.1771 300.992 86.0609C300.97 86.9372 301.252 87.769 301.385 88.586C301.526 89.4029 301.548 90.1753 301.504 90.8734C301.422 92.2771 301.074 93.3688 300.784 94.0818C300.636 94.4382 300.502 94.713 300.399 94.8913C300.295 95.0547 300.235 95.1438 300.228 95.1438Z" fill="#FF9A6C"/>
<path d="M203.708 159.883L196.736 144.212L212.467 133.525L218.646 145.92L203.708 159.883Z" fill="#FF725E"/>
<path d="M266.524 225.312C261.94 220.975 250.748 209.27 247.343 198.502C247.113 197.766 247.929 174.305 248.693 170.228C249.457 166.151 255.235 158.91 255.235 158.91L247.343 138.063L238.591 145.088C238.591 145.088 234.333 146.715 229.935 148.482C222.429 150.005 217.793 144.197 217.793 144.197C218.342 143.893 213.758 146.002 212.46 147.25C212.46 147.25 195.393 163.41 195.653 173.362C195.905 183.306 198.479 184.272 199.502 191.847C200.496 199.177 203.522 208.186 204.413 215.316C205.251 222.037 208.974 226.589 208.974 226.589C208.974 226.589 210.94 230.333 217.304 230.073C223.668 229.82 244.198 225.587 255.406 228.884C266.613 232.189 271.931 238.844 271.931 238.844C271.931 238.844 271.108 229.649 266.524 225.312Z" fill="#FF725E"/>
<path d="M228.986 191.342C228.986 191.365 228.615 191.402 227.94 191.394C227.265 191.387 226.286 191.313 225.092 191.09C222.718 190.652 219.469 189.419 216.666 186.938C213.869 184.458 212.245 181.376 211.526 179.073C211.155 177.915 210.962 176.949 210.873 176.281C210.784 175.613 210.776 175.234 210.799 175.234C210.88 175.219 210.984 176.727 211.785 178.984C212.564 181.227 214.188 184.228 216.925 186.649C219.662 189.07 222.829 190.317 225.151 190.822C227.48 191.342 228.986 191.261 228.986 191.342Z" fill="#263238"/>
<path d="M244.028 167.658C244.006 167.673 243.85 167.502 243.583 167.183C243.308 166.863 242.952 166.373 242.552 165.735C241.743 164.472 240.824 162.571 240.26 160.343C239.704 158.107 239.615 155.998 239.726 154.505C239.778 153.755 239.859 153.154 239.948 152.738C240.03 152.329 240.089 152.099 240.119 152.106C240.186 152.114 240.037 153.035 240 154.513C239.956 155.991 240.082 158.055 240.631 160.246C241.187 162.437 242.047 164.309 242.789 165.593C243.516 166.886 244.08 167.621 244.028 167.658Z" fill="#263238"/>
<path d="M197.077 167.911C197.055 167.904 197.152 167.599 197.359 167.05C197.552 166.5 197.893 165.728 198.331 164.784C199.221 162.905 200.667 160.403 202.588 157.878C204.502 155.345 206.408 153.206 207.766 151.639C208.411 150.911 208.952 150.295 209.39 149.797C209.776 149.367 209.998 149.136 210.02 149.151C210.043 149.166 209.857 149.433 209.509 149.894C209.16 150.354 208.633 151.015 207.981 151.817C206.675 153.429 204.806 155.598 202.9 158.108C200.994 160.618 199.525 163.069 198.583 164.903C197.634 166.753 197.144 167.941 197.077 167.911Z" fill="#263238"/>
<path d="M255.205 220.685C255.198 220.723 254.73 220.671 253.892 220.633C253.047 220.596 251.823 220.641 250.332 220.871C248.841 221.101 247.098 221.569 245.214 222.245C243.33 222.913 241.305 223.797 239.184 224.718C237.055 225.639 234.986 226.449 233.05 227.013C231.107 227.57 229.304 227.897 227.776 227.949C226.248 228.016 225.01 227.875 224.172 227.689C223.749 227.622 223.437 227.503 223.222 227.444C223.007 227.377 222.896 227.34 222.903 227.325C222.918 227.221 224.743 227.882 227.761 227.674C229.267 227.585 231.04 227.236 232.953 226.664C234.867 226.092 236.914 225.275 239.036 224.362C241.157 223.441 243.197 222.564 245.103 221.911C247.009 221.25 248.782 220.804 250.295 220.604C251.808 220.403 253.054 220.396 253.907 220.485C254.33 220.507 254.656 220.581 254.879 220.611C255.094 220.648 255.205 220.671 255.205 220.685Z" fill="#263238"/>
<g opacity="0.3">
<g opacity="0.3">
<path opacity="0.3" d="M217.051 186.864C214.107 184.339 211.444 181.131 211.14 177.262L210.925 177.239C209.968 181.614 211.555 186.441 214.908 189.397C218.26 192.353 222.703 192.85 226.916 191.35C223.133 190.459 219.996 189.382 217.051 186.864Z" fill="black"/>
</g>
</g>
<path d="M208.187 225.193C208.076 225.015 195.148 222.2 186.982 221.532C178.815 220.863 159.583 221.131 155.978 226.188C152.381 231.246 152.796 235.91 154.042 239.371C155.288 242.832 166.362 249.226 171.339 252.286C176.323 255.346 205.384 256.415 205.384 256.415L217.288 227.793L208.187 225.193Z" fill="#FF725E"/>
<path d="M224.246 228.758C223.549 228.81 211.473 229.382 208.158 234.47C204.835 239.549 201.512 245.773 201.379 249.457C201.238 253.14 203.314 255.554 207.194 256.824C211.065 258.094 224.906 258.347 230.165 257.589C235.423 256.824 261.079 252.242 266.613 249.828C272.146 247.414 273.637 242.245 270.744 234.871C268.467 229.07 257.423 227.86 251.2 226.085C244.969 224.302 224.246 228.758 224.246 228.758Z" fill="#FF725E"/>
<path d="M171.072 231.409C171.072 231.38 171.539 231.417 172.385 231.506C172.808 231.543 173.319 231.61 173.92 231.707C174.521 231.788 175.196 231.892 175.945 232.033C177.443 232.286 179.209 232.694 181.152 233.184C183.095 233.704 185.209 234.336 187.397 235.108C189.578 235.888 191.625 236.734 193.45 237.559C195.267 238.413 196.884 239.222 198.197 239.987C198.864 240.351 199.443 240.715 199.962 241.035C200.481 241.346 200.911 241.629 201.26 241.874C201.957 242.356 202.343 242.631 202.328 242.654C202.313 242.676 201.905 242.446 201.186 242C200.83 241.777 200.385 241.51 199.858 241.22C199.339 240.923 198.746 240.574 198.078 240.225C196.758 239.49 195.133 238.71 193.316 237.878C191.484 237.069 189.452 236.237 187.279 235.464C185.105 234.7 182.999 234.053 181.07 233.519C179.135 233.014 177.384 232.583 175.901 232.293C175.159 232.13 174.491 232.011 173.898 231.907C173.305 231.796 172.8 231.707 172.377 231.647C171.532 231.521 171.072 231.432 171.072 231.409Z" fill="#263238"/>
<path d="M264.596 241.109C264.573 241.124 264.277 240.864 263.743 240.373C263.216 239.876 262.43 239.185 261.436 238.368C260.442 237.544 259.211 236.623 257.794 235.672C256.37 234.737 254.753 233.786 252.995 232.902C251.23 232.033 249.487 231.328 247.885 230.756C246.268 230.206 244.792 229.776 243.538 229.486C242.285 229.189 241.254 228.981 240.542 228.862C239.83 228.736 239.437 228.654 239.437 228.632C239.437 228.602 239.837 228.639 240.564 228.714C241.283 228.788 242.322 228.951 243.598 229.219C244.873 229.478 246.364 229.88 248.003 230.422C249.628 230.979 251.386 231.684 253.173 232.561C254.946 233.452 256.57 234.425 258.002 235.383C259.418 236.356 260.642 237.306 261.621 238.16C262.6 239.014 263.364 239.735 263.861 240.269C264.351 240.789 264.618 241.094 264.596 241.109Z" fill="#263238"/>
<path d="M270.507 238.265C270.5 238.272 270.455 238.235 270.359 238.168C270.248 238.079 270.114 237.975 269.958 237.849C269.58 237.544 269.068 237.121 268.423 236.594C267.088 235.517 265.167 233.92 262.571 232.279C261.273 231.469 259.797 230.66 258.128 229.984C256.459 229.315 254.597 228.803 252.602 228.483C248.604 227.83 244.109 227.912 239.429 228.03C234.742 228.179 230.284 228.513 226.241 228.959C224.224 229.182 222.303 229.419 220.523 229.694C218.75 229.999 217.044 230.296 215.487 230.11C213.914 229.991 212.601 229.338 211.555 228.721C210.51 228.068 209.686 227.392 209.078 226.768C208.47 226.144 208.077 225.594 207.862 225.186C207.639 224.785 207.58 224.555 207.58 224.555C207.602 224.547 207.691 224.77 207.928 225.149C208.166 225.535 208.566 226.062 209.182 226.664C209.79 227.258 210.621 227.912 211.659 228.535C212.705 229.137 213.981 229.746 215.501 229.843C217.022 230.006 218.676 229.701 220.456 229.382C222.251 229.092 224.165 228.847 226.19 228.61C230.232 228.142 234.704 227.793 239.407 227.652C244.095 227.533 248.604 227.466 252.647 228.142C254.664 228.469 256.548 229.003 258.239 229.694C259.923 230.392 261.406 231.224 262.704 232.056C265.293 233.742 267.192 235.376 268.505 236.49C269.128 237.039 269.625 237.485 269.988 237.804C270.136 237.945 270.262 238.064 270.366 238.153C270.47 238.22 270.507 238.265 270.507 238.265Z" fill="#263238"/>
<path d="M227.198 228.817C227.198 228.832 227.042 228.869 226.738 228.921C226.434 228.981 225.982 229.04 225.411 229.167C224.261 229.382 222.607 229.753 220.604 230.37C216.621 231.58 211.244 233.979 206.311 238.041C203.856 240.047 201.772 242.371 200.786 244.933C199.769 247.496 200.022 250.095 200.615 252.063C201.208 254.061 202.084 255.539 202.714 256.512C203.359 257.485 203.775 257.99 203.745 258.012C203.738 258.019 203.626 257.901 203.419 257.67C203.211 257.44 202.929 257.076 202.588 256.601C201.913 255.643 200.993 254.172 200.355 252.145C200.044 251.135 199.806 249.984 199.777 248.729C199.74 247.481 199.955 246.129 200.459 244.807C201.46 242.141 203.589 239.772 206.074 237.744C211.058 233.637 216.503 231.261 220.53 230.11C222.555 229.523 224.224 229.196 225.388 229.025C225.967 228.929 226.427 228.892 226.731 228.855C227.035 228.817 227.198 228.803 227.198 228.817Z" fill="#263238"/>
<g opacity="0.3">
<g opacity="0.3">
<path opacity="0.3" d="M257.587 224.384C256.036 223.27 253.952 223.307 252.053 223.523C245.853 224.213 240.312 225.305 234.4 227.31C242.292 225.981 250.177 224.859 257.446 225.35C257.609 225.357 257.794 225.312 257.898 225.186C258.113 224.941 257.854 224.577 257.587 224.384Z" fill="black"/>
</g>
</g>
<path d="M383.797 235.725C383.159 232.472 381.261 229.605 379.058 227.132C371.255 218.346 359.447 213.808 347.727 213.036C336.008 212.264 324.311 214.937 313.186 218.71C306.888 220.841 300.48 223.493 296.044 228.446C291.609 233.4 289.747 241.243 293.396 246.805L298.314 247.726C297.528 247.763 296.742 247.793 295.955 247.83C321.203 249.033 346.518 248.929 371.759 247.518C375.067 247.333 378.635 247.021 381.127 244.845C383.627 242.654 384.442 238.978 383.797 235.725Z" fill="#E0E0E0"/>
<path d="M352.156 224.161C352.178 224.154 352.267 224.384 352.4 224.815C352.534 225.238 352.697 225.862 352.875 226.642C353.239 228.194 353.609 230.37 353.787 232.798C353.958 235.227 353.899 237.44 353.765 239.022C353.698 239.817 353.624 240.455 353.55 240.894C353.483 241.332 353.431 241.577 353.402 241.569C353.342 241.562 353.424 240.582 353.491 239C353.557 237.418 353.572 235.227 353.402 232.821C353.224 230.415 352.897 228.246 352.608 226.686C352.319 225.134 352.096 224.176 352.156 224.161Z" fill="#263238"/>
<path d="M346.311 224.488C346.311 224.502 346.156 224.488 345.859 224.458C345.525 224.413 345.095 224.361 344.568 224.295C343.456 224.139 341.831 223.945 339.836 223.752C337.834 223.544 335.445 223.374 332.79 223.262C330.135 223.166 327.205 223.129 324.141 223.225C321.071 223.329 318.156 223.552 315.508 223.819C312.867 224.109 310.486 224.436 308.506 224.77C306.518 225.097 304.916 225.394 303.818 225.617C303.299 225.713 302.876 225.795 302.543 225.862C302.253 225.914 302.098 225.936 302.09 225.921C302.09 225.906 302.238 225.862 302.52 225.787C302.847 225.706 303.269 225.602 303.781 225.475C304.879 225.201 306.474 224.866 308.454 224.503C310.434 224.131 312.815 223.782 315.463 223.47C318.119 223.181 321.041 222.95 324.119 222.839C327.197 222.75 330.134 222.787 332.797 222.906C335.46 223.039 337.856 223.24 339.858 223.485C341.861 223.723 343.478 223.953 344.591 224.153C345.11 224.25 345.533 224.324 345.866 224.384C346.163 224.436 346.319 224.473 346.311 224.488Z" fill="#263238"/>
<path d="M370.647 224.213C370.639 224.272 369.764 224.183 368.355 224.064C366.946 223.946 364.995 223.812 362.836 223.767C360.678 223.723 358.727 223.782 357.311 223.842C355.894 223.901 355.019 223.953 355.011 223.901C355.004 223.849 355.872 223.7 357.288 223.574C358.705 223.441 360.671 223.344 362.844 223.389C365.017 223.433 366.975 223.611 368.384 223.797C369.794 223.983 370.654 224.161 370.647 224.213Z" fill="#263238"/>
<path d="M46.7679 348.819H41.1976L39.0466 311.871H48.4294L46.7679 348.819Z" fill="#B56D50"/>
<path d="M156.772 348.819H151.194L149.043 307.088H158.426L156.772 348.819Z" fill="#B56D50"/>
<path d="M384.554 301.466H23.2107V261.109C23.2107 252.917 29.8417 246.285 38.0154 246.285H386.215C391.096 246.285 395.057 250.251 395.057 255.138V290.95C395.057 296.757 390.354 301.466 384.554 301.466Z" fill="#E0E0E0"/>
<g opacity="0.3">
<path opacity="0.3" d="M283.717 301.607L289.962 301.466L285.282 246.679L277.131 246.256L283.717 301.607Z" fill="black"/>
</g>
<path d="M22.9216 304.897V255.591C22.9216 248.922 28.3139 243.515 34.9894 243.485L112.773 243.136C112.773 243.136 122.371 233.474 129.225 233.541C136.078 233.6 141.567 216.861 163.678 216.816C188.681 216.764 182.451 223.975 196.113 228.624C209.775 233.274 229.817 223.441 242.367 233.541C254.916 243.649 274.565 237.848 278.681 246.686C282.798 255.517 283.71 307.095 283.71 307.095L22.9216 304.897Z" fill="#455A64"/>
<path d="M22.9216 294.834V304.897C22.6027 313.817 24.5015 314.188 28.5513 315.778C32.6085 317.367 37.133 316.268 41.2273 314.797C45.3215 313.327 49.4381 311.47 53.7549 311.574C62.433 311.782 69.6648 319.773 78.3429 319.862C89.4464 319.981 98.2061 307.244 109.265 308.314C117.676 309.123 124.463 317.887 132.881 317.07C138.741 316.498 143.429 311.336 149.244 310.363C156.75 309.108 163.618 315.035 171.147 316.156C181.338 317.671 191.21 310.237 201.453 311.284C210.265 312.183 217.749 319.201 226.575 319.937C237.657 320.857 247.848 311.7 258.914 312.71C268.127 313.55 276.041 321.34 285.283 321.058L283.517 299.119L22.9216 294.834Z" fill="#455A64"/>
<path d="M163.685 306.784C163.581 306.784 163.492 294.032 163.492 278.309C163.492 262.58 163.581 249.835 163.685 249.835C163.789 249.835 163.878 262.58 163.878 278.309C163.878 294.039 163.789 306.784 163.685 306.784Z" fill="#263238"/>
<path d="M168.461 244.265C168.461 244.265 168.343 244.28 168.12 244.288C167.875 244.295 167.549 244.295 167.126 244.31C166.229 244.317 164.946 244.332 163.292 244.347C159.947 244.362 155.133 244.384 149.192 244.406C137.272 244.421 120.828 244.444 102.671 244.466C84.5063 244.444 68.0623 244.421 56.1429 244.406C50.2017 244.384 45.388 244.362 42.0428 244.347C40.3962 244.332 39.1056 244.317 38.2081 244.31C37.7854 244.302 37.4516 244.295 37.2142 244.288C36.9917 244.28 36.873 244.265 36.873 244.265C36.873 244.265 36.9917 244.25 37.2142 244.243C37.459 244.236 37.7854 244.236 38.2081 244.221C39.1056 244.213 40.3888 244.199 42.0428 244.184C45.388 244.169 50.2017 244.147 56.1429 244.124C68.0623 244.109 84.5063 244.087 102.671 244.065C120.828 244.087 137.272 244.109 149.192 244.124C155.133 244.147 159.947 244.169 163.292 244.184C164.946 244.199 166.229 244.213 167.126 244.221C167.549 244.228 167.883 244.236 168.12 244.243C168.35 244.25 168.461 244.265 168.461 244.265Z" fill="#263238"/>
<path d="M192.486 230.058C192.479 230.14 190.98 229.984 188.57 230.125C187.368 230.184 185.937 230.37 184.372 230.675C182.814 231.001 181.123 231.469 179.402 232.123C177.689 232.791 176.124 233.586 174.744 234.388C173.379 235.212 172.2 236.037 171.265 236.802C169.381 238.317 168.38 239.438 168.321 239.386C168.298 239.371 168.543 239.082 169.003 238.577C169.226 238.324 169.515 238.02 169.871 237.693C170.227 237.366 170.613 236.972 171.087 236.594C172.007 235.799 173.186 234.937 174.559 234.083C175.938 233.252 177.525 232.442 179.261 231.759C181.004 231.098 182.717 230.637 184.297 230.318C185.885 230.028 187.331 229.872 188.547 229.843C189.156 229.798 189.704 229.835 190.187 229.843C190.669 229.843 191.084 229.88 191.425 229.917C192.115 229.984 192.486 230.036 192.486 230.058Z" fill="#263238"/>
<path d="M271.108 246.256C271.108 246.36 257.231 246.3 240.119 246.107C223 245.921 209.13 245.684 209.13 245.572C209.13 245.468 223.008 245.528 240.119 245.721C257.238 245.907 271.108 246.144 271.108 246.256Z" fill="#263238"/>
<path d="M277.132 312.213C277.028 312.22 275.952 299.201 274.736 283.13C273.519 267.058 272.622 254.024 272.726 254.017C272.83 254.009 273.905 267.028 275.121 283.1C276.338 299.171 277.243 312.205 277.132 312.213Z" fill="#263238"/>
<path d="M71.9197 281.429C72.0236 281.436 71.8752 287.994 71.5785 296.082C71.2818 304.177 70.9629 310.727 70.8516 310.727C70.7478 310.72 70.8961 304.162 71.1928 296.067C71.4895 287.979 71.8159 281.421 71.9197 281.429Z" fill="#263238"/>
<path d="M84.0618 309.056C83.9578 309.056 83.8687 298.919 83.8687 286.412C83.8687 273.905 83.9578 263.768 84.0618 263.768C84.1658 263.768 84.255 273.905 84.255 286.412C84.255 298.919 84.1732 309.056 84.0618 309.056Z" fill="#263238"/>
<path d="M118.582 304.407C118.567 304.407 118.537 304.288 118.493 304.05C118.441 303.768 118.381 303.427 118.3 303.011C118.144 302.112 117.936 300.805 117.706 299.186C117.239 295.948 116.69 291.462 116.253 286.486C115.822 281.51 115.585 276.995 115.481 273.727C115.429 272.093 115.407 270.771 115.407 269.85C115.407 269.427 115.414 269.085 115.414 268.796C115.422 268.558 115.429 268.432 115.444 268.424C115.459 268.424 115.474 268.551 115.496 268.788C115.511 269.07 115.533 269.42 115.563 269.843C115.615 270.816 115.681 272.123 115.763 273.712C115.934 276.972 116.215 281.481 116.646 286.449C117.083 291.417 117.588 295.903 117.988 299.149C118.181 300.723 118.344 302.023 118.463 302.988C118.507 303.404 118.552 303.753 118.582 304.036C118.589 304.281 118.596 304.407 118.582 304.407Z" fill="#263238"/>
<path d="M130.3 309.39C130.286 309.398 130.226 309.279 130.122 309.049C130.004 308.774 129.855 308.447 129.685 308.039C129.307 307.162 128.81 305.87 128.246 304.251C127.675 302.639 127.089 300.686 126.518 298.495C125.969 296.297 125.442 293.861 125.034 291.284C124.641 288.699 124.396 286.219 124.263 283.961C124.144 281.703 124.114 279.661 124.166 277.953C124.211 276.245 124.292 274.856 124.389 273.905C124.433 273.467 124.47 273.103 124.5 272.806C124.53 272.554 124.552 272.427 124.567 272.427C124.582 272.427 124.582 272.561 124.582 272.814C124.574 273.111 124.559 273.475 124.545 273.913C124.493 274.863 124.456 276.245 124.441 277.953C124.426 279.661 124.478 281.689 124.619 283.939C124.775 286.189 125.027 288.655 125.42 291.224C125.828 293.794 126.332 296.223 126.866 298.406C127.415 300.59 127.979 302.543 128.513 304.162C129.039 305.781 129.499 307.088 129.833 307.979C129.981 308.395 130.108 308.737 130.204 309.011C130.271 309.257 130.308 309.383 130.3 309.39Z" fill="#263238"/>
<path d="M190.55 271.44C190.654 271.447 189.986 280.033 189.052 290.616C188.117 301.199 187.279 309.769 187.175 309.762C187.071 309.754 187.739 301.169 188.673 290.586C189.601 280.003 190.446 271.425 190.55 271.44Z" fill="#263238"/>
<path d="M209.426 306.397C209.411 306.405 209.359 306.271 209.27 306.018C209.174 305.721 209.055 305.357 208.907 304.904C208.588 303.939 208.18 302.528 207.713 300.768C206.778 297.255 205.717 292.331 205.028 286.82C204.338 281.31 204.152 276.274 204.19 272.643C204.204 270.823 204.256 269.353 204.323 268.343C204.353 267.875 204.382 267.489 204.405 267.177C204.427 266.909 204.449 266.768 204.457 266.768C204.471 266.768 204.479 266.909 204.479 267.177C204.479 267.489 204.471 267.875 204.471 268.343C204.449 269.36 204.442 270.823 204.464 272.643C204.501 276.267 204.731 281.28 205.413 286.776C206.103 292.264 207.119 297.181 207.98 300.701C208.41 302.461 208.781 303.887 209.048 304.86C209.166 305.32 209.263 305.692 209.344 305.989C209.411 306.256 209.441 306.397 209.426 306.397Z" fill="#263238"/>
<path d="M249.71 309.056C249.606 309.064 249.05 301.689 248.471 292.591C247.893 283.486 247.514 276.104 247.618 276.096C247.722 276.089 248.278 283.464 248.857 292.562C249.435 301.667 249.821 309.049 249.71 309.056Z" fill="#263238"/>
<path d="M386.721 246.278C386.721 246.382 362.785 246.471 333.258 246.471C303.722 246.471 279.794 246.382 279.794 246.278C279.794 246.174 303.73 246.084 333.258 246.084C362.785 246.084 386.721 246.174 386.721 246.278Z" fill="#263238"/>
<g opacity="0.3">
<g opacity="0.3">
<path opacity="0.3" d="M189.831 230.021C189.579 229.367 189.015 228.877 188.332 228.736C183.838 227.793 179.165 227.607 174.67 228.536C169.812 229.538 165.183 231.885 161.794 235.509C160.933 236.43 160.103 237.559 160.518 238.918C160.926 240.225 162.239 241.005 163.611 240.99C165.517 240.975 167.112 240.173 168.625 239.074L172.756 235.227C178.201 230.964 188.08 229.583 189.831 230.021C189.838 230.028 189.838 230.021 189.831 230.021Z" fill="black"/>
</g>
</g>
</g>
<defs>
<filter id="filter0_d_53_1941" x="-4" y="0" width="373" height="353" filterUnits="userSpaceOnUse" color-interpolation-filters="sRGB">
<feFlood flood-opacity="0" result="BackgroundImageFix"/>
<feColorMatrix in="SourceAlpha" type="matrix" values="0 0 0 0 0 0 0 0 0 0 0 0 0 0 0 0 0 0 127 0" result="hardAlpha"/>
<feOffset dy="4"/>
<feGaussianBlur stdDeviation="2"/>
<feComposite in2="hardAlpha" operator="out"/>
<feColorMatrix type="matrix" values="0 0 0 0 0 0 0 0 0 0 0 0 0 0 0 0 0 0 0.25 0"/>
<feBlend mode="normal" in2="BackgroundImageFix" result="effect1_dropShadow_53_1941"/>
<feBlend mode="normal" in="SourceGraphic" in2="effect1_dropShadow_53_1941" result="shape"/>
</filter>
<clipPath id="clip0_53_1941">
<rect width="365" height="345" fill="white"/>
</clipPath>
</defs>
</svg>
