<svg width="28" height="28" viewBox="0 0 28 28" fill="none" xmlns="http://www.w3.org/2000/svg">
<path d="M9.3335 13.3C9.3335 14.1984 10.0335 14.9334 10.8852 14.9334H12.6352C13.3818 14.9334 13.9885 14.2917 13.9885 13.51C13.9885 12.6584 13.6152 12.355 13.0668 12.1567L10.2668 11.1767C9.70683 10.9784 9.3335 10.675 9.3335 9.82336C9.3335 9.04169 9.94016 8.40002 10.6868 8.40002H12.4368C13.3002 8.41169 14.0002 9.13503 14.0002 10.0334" stroke="#774C9E" stroke-width="1.5" stroke-linecap="round" stroke-linejoin="round"/>
<path d="M11.6665 14.9917V15.855" stroke="#774C9E" stroke-width="1.5" stroke-linecap="round" stroke-linejoin="round"/>
<path d="M11.6665 7.47839V8.38839" stroke="#774C9E" stroke-width="1.5" stroke-linecap="round" stroke-linejoin="round"/>
<path d="M11.6552 20.9767C16.8034 20.9767 20.9768 16.8033 20.9768 11.655C20.9768 6.50683 16.8034 2.33337 11.6552 2.33337C6.50695 2.33337 2.3335 6.50683 2.3335 11.655C2.3335 16.8033 6.50695 20.9767 11.6552 20.9767Z" stroke="#774C9E" stroke-width="1.5" stroke-linecap="round" stroke-linejoin="round"/>
<path d="M15.1436 23.1933C16.1936 24.675 17.9086 25.6433 19.8686 25.6433C23.0536 25.6433 25.6436 23.0533 25.6436 19.8683C25.6436 17.9316 24.6869 16.2166 23.2286 15.1666" stroke="#774C9E" stroke-width="1.5" stroke-linecap="round" stroke-linejoin="round"/>
</svg>
