<svg width="24" height="24" viewBox="0 0 24 24" fill="none" xmlns="http://www.w3.org/2000/svg">
<path d="M19.8732 12.9178C21.6414 11.295 21.1706 9.89471 20.0549 8.6791L15.9978 4.25869C14.8821 3.04308 13.5272 2.4542 11.759 4.07704C9.99087 5.69988 10.4617 7.10018 11.5774 8.31579L15.6345 12.7362C16.7502 13.9518 18.1051 14.5407 19.8732 12.9178Z" stroke="#180F20" stroke-width="1.5" stroke-linecap="round" stroke-linejoin="round"/>
<path d="M12.2408 19.923C10.4726 21.5458 9.11773 20.9569 8.00203 19.7413L3.94493 15.3209C2.82923 14.1053 2.35842 12.705 4.12658 11.0822C5.89474 9.45933 7.24963 10.0482 8.36533 11.2638L12.4224 15.6842C13.5381 16.8998 14.0089 18.3001 12.2408 19.923Z" stroke="#180F20" stroke-width="1.5" stroke-linecap="round" stroke-linejoin="round"/>
<path d="M10.3939 13.4741L13.6061 10.526" stroke="#180F20" stroke-width="1.5" stroke-linecap="round" stroke-linejoin="round"/>
<path d="M21.4261 6.74202L18.0452 3.05835" stroke="#180F20" stroke-width="1.5" stroke-linecap="round" stroke-linejoin="round"/>
<path d="M5.95477 20.9418L2.57385 17.2582" stroke="#180F20" stroke-width="1.5" stroke-linecap="round" stroke-linejoin="round"/>
</svg>
