<svg width="24" height="24" viewBox="0 0 24 24" fill="none" xmlns="http://www.w3.org/2000/svg">
<path d="M23.2 -0.000976562H20C19.664 -0.000976562 19.36 0.207026 19.248 0.527026L16.168 8.99902L8.288 12.319C7.768 12.543 7.272 12.807 6.816 13.111L4.312 5.59902H6.4C6.84 5.59902 7.2 5.23902 7.2 4.79902C7.2 4.35902 6.84 3.99902 6.4 3.99902H0.8C0.36 3.99902 0 4.35902 0 4.79902C0 5.23902 0.36 5.59902 0.8 5.59902H2.624L5.488 14.183C3.112 16.527 2.136 20.119 3.24 23.447C3.352 23.775 3.656 23.991 4 23.991H19.2C19.568 23.991 19.888 23.743 19.976 23.383L21.584 16.951C22.136 14.735 21.36 12.351 19.608 10.887L17.744 9.33502L20.56 1.59102H23.2C23.64 1.59102 24 1.23102 24 0.791022C24 0.351022 23.64 -0.000976562 23.2 -0.000976562ZM13.6 13.599C13.6 14.039 13.96 14.399 14.4 14.399L13.336 15.823C12.856 15.439 12.256 15.199 11.6 15.199C10.056 15.199 8.8 16.455 8.8 17.999C8.8 19.543 10.056 20.799 11.6 20.799C13.144 20.799 14.4 19.543 14.4 17.999C14.4 17.727 14.352 17.471 14.28 17.231L16.4 14.399H17.6C18.04 14.399 18.4 14.039 18.4 13.599C18.4 13.159 18.04 12.799 17.6 12.799H14.4C13.96 12.799 13.6 13.159 13.6 13.599ZM11.6 19.199C10.936 19.199 10.4 18.663 10.4 17.999C10.4 17.335 10.936 16.799 11.6 16.799C12.264 16.799 12.8 17.335 12.8 17.999C12.8 18.663 12.264 19.199 11.6 19.199ZM20.032 16.567L18.576 22.399H4.6C3.728 18.911 5.544 15.207 8.904 13.791L16.664 10.527L18.584 12.127C19.872 13.199 20.44 14.943 20.032 16.567Z" fill="#855CF8"/>
</svg>
