<svg width="28" height="28" viewBox="0 0 28 28" fill="none" xmlns="http://www.w3.org/2000/svg">
<path d="M27.6304 9.96801C26.775 8.48064 25.6181 6.96409 24.2766 5.52532C24.3252 5.49616 24.3738 5.47672 24.4224 5.42811L25.3945 4.45597C25.7737 4.07684 25.7737 3.46439 25.3945 3.08525C25.0154 2.70612 24.4029 2.70612 24.0238 3.08525L23.0517 4.0574C23.0128 4.09628 22.9933 4.1546 22.9544 4.20321C21.5157 2.85193 19.9991 1.69509 18.5118 0.849326C17.5785 0.314648 16.4119 0.343814 15.537 0.927099C14.8662 1.37428 14.2441 1.8798 13.6705 2.44364C13.1066 3.00748 12.5914 3.63937 12.1539 4.31015C11.5707 5.18508 11.5415 6.35165 12.0762 7.28491C12.9219 8.76256 14.0788 10.2791 15.4106 11.7081L11.2401 15.8689C9.81109 14.5274 8.29454 13.3802 6.81689 12.5345C5.88363 11.9998 4.71707 12.029 3.84214 12.6122C3.17136 13.0594 2.54918 13.5649 1.97562 14.1288C1.41178 14.6926 0.896545 15.3245 0.459081 15.9953C-0.124204 16.8702 -0.15337 18.0368 0.381308 18.97C1.23679 20.4574 2.39365 21.974 3.7352 23.4127C3.68659 23.4419 3.63799 23.4613 3.58938 23.5099L2.61724 24.4821C2.2381 24.8612 2.2381 25.4737 2.61724 25.8528C2.81167 26.0472 3.0547 26.1347 3.30746 26.1347C3.56021 26.1347 3.80325 26.0375 3.99768 25.8528L4.96982 24.8807C5.0087 24.8418 5.02814 24.7835 5.06703 24.7349C6.5058 26.0764 8.02234 27.243 9.50972 28.0887C9.9569 28.3415 10.4527 28.4679 10.9485 28.4679C11.4929 28.4679 12.0276 28.3123 12.4845 28.011C13.1553 27.5638 13.7774 27.0583 14.351 26.4944C14.9148 25.9306 15.4301 25.2987 15.8675 24.6376C16.4508 23.7433 16.48 22.6059 15.9453 21.6629C15.0995 20.1852 13.9427 18.6687 12.6109 17.2396L16.7813 13.0789C18.2104 14.4107 19.7172 15.5676 21.2046 16.4133C21.6518 16.6661 22.1476 16.7925 22.6434 16.7925C23.1878 16.7925 23.7224 16.6369 24.1793 16.3355C24.8501 15.8884 25.4723 15.3828 26.0458 14.819C26.6097 14.2552 27.1249 13.6233 27.5624 12.9525C28.136 12.0678 28.1651 10.9013 27.6304 9.96801ZM14.2441 23.5488C13.8746 24.1127 13.4469 24.6376 12.9705 25.114C12.4942 25.5903 11.9692 26.0181 11.4151 26.3875C11.1429 26.5625 10.7735 26.5722 10.4819 26.3972C8.90699 25.4931 7.27379 24.2196 5.76697 22.7128C4.26015 21.206 2.97693 19.5728 2.08256 17.9979C1.90757 17.6965 1.91729 17.3271 2.09228 17.0549C2.46169 16.4911 2.88943 15.9661 3.36578 15.4898C3.84213 15.0134 4.36709 14.5857 4.93093 14.2163C5.06703 14.1288 5.2323 14.0802 5.39756 14.0802C5.56283 14.0802 5.71837 14.1191 5.87391 14.2066C7.44878 15.1106 9.08198 16.3841 10.5888 17.891C12.0956 19.3978 13.3788 21.031 14.2732 22.6156C14.4288 22.9169 14.419 23.2864 14.2441 23.5488ZM25.9292 11.8637C25.5598 12.4275 25.132 12.9525 24.6557 13.4191C24.1793 13.8955 23.6544 14.3232 23.0905 14.6926C22.8183 14.8676 22.4489 14.8773 22.1573 14.7023C20.5824 13.7983 18.9492 12.5247 17.4424 11.0179C15.9356 9.51111 14.6523 7.87791 13.758 6.30304C13.583 6.00168 13.5927 5.63226 13.7677 5.36979C14.1371 4.80594 14.5649 4.28099 15.0412 3.81436C15.5176 3.33801 16.0425 2.91026 16.6064 2.54085C16.7425 2.45336 16.9077 2.40475 17.073 2.40475C17.2382 2.40475 17.3938 2.44364 17.5493 2.53113C19.1242 3.43523 20.7574 4.70873 22.2642 6.21554C23.771 7.72236 25.0543 9.35557 25.9486 10.9304C26.1139 11.2318 26.1042 11.6012 25.9292 11.8637Z" fill="#455A64"/>
</svg>
