<svg width="11" height="15" viewBox="0 0 11 15" fill="none" xmlns="http://www.w3.org/2000/svg">
<path d="M10.9953 8.94271C10.9819 8.03113 10.7213 7.19659 10.2418 6.42196C9.7364 5.60532 9.04004 4.97581 8.27047 4.41089C7.65993 3.96269 7.05135 3.50826 6.5837 2.90287C6.09952 2.27609 5.84365 1.58161 5.96214 0.780914C5.99993 0.525687 6.07669 0.280188 6.16132 6.10352e-05C5.79012 0.198484 5.4752 0.415582 5.17839 0.657191C4.09312 1.54192 3.28064 2.61496 2.96218 3.98914C2.68072 5.20341 2.7189 6.43091 2.92754 7.65491C2.94604 7.76346 2.97202 7.87084 2.98737 7.97978C2.99603 8.04281 3.00863 8.12334 2.94446 8.15836C2.8681 8.19999 2.83149 8.11323 2.78897 8.07354C2.16347 7.48956 1.87808 6.74372 1.75133 5.92396C1.69307 5.54812 1.6852 5.1684 1.68598 4.7626C1.53286 4.88905 1.43248 5.0225 1.3317 5.154C0.175176 6.66746 -0.166507 8.39063 0.0712543 10.2305C0.523945 13.7379 4.46944 16.2159 8.0209 14.3756C9.36834 13.6776 10.3076 12.6128 10.7815 11.1775C11.0205 10.4538 11.0063 9.69633 10.9953 8.94271ZM9.60335 10.0815C9.23332 11.7782 7.94611 12.9878 6.24478 13.2582C4.88355 13.4745 3.76442 12.9987 2.77756 12.1163C2.74843 12.0902 2.70513 12.063 2.7189 12.0229C2.74174 11.9584 2.81495 11.9552 2.86888 11.9467C3.21411 11.8907 3.54398 11.7844 3.85929 11.6385C4.90245 11.1565 5.62321 10.3811 6.00938 9.30571C6.0389 9.22401 6.04441 9.07811 6.13652 9.08939C6.24556 9.10262 6.22155 9.25202 6.22273 9.33839C6.23021 9.84612 6.1692 10.3461 6.02001 10.834C5.9582 11.0359 5.90112 11.2394 5.83027 11.4821C6.52426 11.0153 7.01986 10.4383 7.33793 9.72279C7.83234 8.61045 7.85281 7.50278 7.25959 6.41107C7.12063 6.15545 6.97499 5.90178 6.87343 5.60143C7.2218 5.67262 7.51546 5.82203 7.79416 5.99905C9.15656 6.86433 9.92535 8.60384 9.60335 10.0815Z" fill='#000'/>
</svg>
