<svg width="24" height="24" viewBox="0 0 24 24" fill="none" xmlns="http://www.w3.org/2000/svg">
<path d="M22.4 16.8C22.36 16.8 18.216 16.76 17.576 14.208C16.8081 11.152 15.208 9.6 12.8 9.6V7.92C14.624 7.552 16 5.936 16 4C16 1.792 14.208 0 12 0C9.79205 0 8.00005 1.792 8.00005 4C8.00005 5.928 9.37605 7.544 11.2 7.92V9.6C9.54405 9.6 7.37605 10.4 6.42405 14.208C5.78405 16.76 1.64005 16.8 1.60005 16.8C1.16005 16.8 0.800049 17.16 0.800049 17.6C0.800049 18.04 1.16005 18.4 1.60005 18.4C1.82405 18.4 7.03205 18.36 7.97605 14.592C8.54405 12.312 9.60005 11.2 11.2 11.2V20.976L4.19205 19.224C3.76005 19.112 3.32805 19.376 3.22405 19.808C3.12005 20.24 3.37605 20.672 3.80805 20.776L16.6081 23.976C16.6721 23.992 16.736 24 16.8 24C17.16 24 17.4881 23.76 17.576 23.392C17.68 22.96 17.424 22.528 16.992 22.424L15.2961 22L20.1921 20.776C20.6241 20.672 20.8801 20.232 20.7761 19.808C20.6721 19.376 20.232 19.12 19.808 19.224L12.8 20.976V11.2C13.816 11.2 15.264 11.552 16.024 14.592C16.968 18.352 22.176 18.4 22.4 18.4C22.84 18.4 23.2 18.04 23.2 17.6C23.2 17.16 22.84 16.8 22.4 16.8ZM7.80805 22.224L7.00805 22.424C6.57605 22.528 6.32005 22.968 6.42405 23.392C6.51205 23.76 6.84005 24 7.20005 24C7.26405 24 7.32805 23.992 7.39205 23.976L8.19205 23.776C8.62405 23.672 8.88005 23.232 8.77605 22.808C8.67205 22.376 8.23205 22.112 7.80805 22.224ZM9.60005 4C9.60005 2.68 10.68 1.6 12 1.6C13.32 1.6 14.4 2.68 14.4 4C14.4 5.32 13.32 6.4 12 6.4C10.68 6.4 9.60005 5.32 9.60005 4Z" fill="#2DAF2D"/>
</svg>
