<svg width="27" height="28" viewBox="0 0 27 28" fill="none" xmlns="http://www.w3.org/2000/svg">
<path d="M26.9742 12.101C26.9742 8.78917 24.2729 6.08788 20.9611 6.08788C18.158 6.08788 15.7435 8.05834 15.1145 10.7134C12.996 10.6394 11.044 11.509 9.61938 12.9891L8.90705 12.3786C7.9542 11.5645 7.28813 10.4914 6.98284 9.27022L6.79783 8.54865L7.74143 8.23412C8.68503 7.91958 9.3881 7.124 9.58237 6.15264L9.98017 4.18218C10.2577 2.81304 9.46211 1.44389 8.12997 0.99984L5.65996 0.176503C4.35557 -0.258293 2.91242 0.343016 2.2926 1.5734L2.07057 2.0267C0.201875 5.77335 -0.316178 10.0843 0.627422 14.164L0.738429 14.6543C1.60802 18.4194 3.39346 21.9626 5.90973 24.9044L6.83482 25.9867C7.46389 26.7176 8.35199 27.1154 9.28634 27.1154C9.55462 27.1154 9.8229 27.0784 10.0912 27.0136L16.0488 25.4502C20.11 24.5158 22.3395 21.9256 22.3395 18.1419C22.3395 18.0864 22.3395 18.0309 22.3395 17.9754C25.0038 17.3186 26.9742 14.9041 26.9742 12.101ZM14.9479 14.4138C12.9035 14.4138 11.2475 16.0697 11.2475 18.1142C11.2475 18.623 11.6638 19.0393 12.1726 19.0393C12.6815 19.0393 13.0977 18.623 13.0977 18.1142C13.0977 17.0966 13.9303 16.264 14.9479 16.264C15.4567 16.264 15.873 15.8477 15.873 15.3389C15.873 14.8301 15.4567 14.4138 14.9479 14.4138ZM21.2756 16.2455L20.2858 16.3195L20.4338 17.3001C20.48 17.6146 20.4985 17.8644 20.4985 18.1142C20.4985 21.0282 18.8611 22.8784 15.614 23.6278L9.63787 25.2004C9.12907 25.3299 8.59251 25.1634 8.25022 24.7564L7.32513 23.6833C5.00313 20.9727 3.34721 17.7071 2.55163 14.2287L2.44061 13.7384C1.59877 10.0751 2.05207 6.20814 3.73575 2.85004L3.95777 2.39673C4.11503 2.07295 4.44808 1.88794 4.79036 1.88794C4.88287 1.88794 4.98463 1.90643 5.07714 1.93418L7.54715 2.75752C7.9912 2.90554 8.25948 3.35884 8.16697 3.82139L7.76918 5.79184C7.70443 6.11563 7.47315 6.38391 7.15861 6.48567L4.58684 7.34602L5.1789 9.73277C5.5767 11.3239 6.44628 12.7301 7.68591 13.794L9.86915 15.6627L10.4612 14.8578C11.5251 13.4054 13.1533 12.5728 14.9387 12.5728C15.1792 12.5728 15.4382 12.5913 15.7528 12.6376L16.7334 12.7856L16.8074 11.7957C16.9739 9.64026 18.7871 7.94732 20.9518 7.94732C23.2461 7.94732 25.1148 9.81602 25.1148 12.1103C25.124 14.2657 23.4311 16.0882 21.2756 16.2455Z" fill="#2DAF2D"/>
</svg>
