<svg width="28" height="28" viewBox="0 0 28 28" fill="none" xmlns="http://www.w3.org/2000/svg">
<path d="M27.9342 26.1288L26.7116 23.0675C26.1982 21.7889 25.1623 20.8089 23.8556 20.3796L21.2236 19.5022C20.6637 19.3156 20.225 18.8769 20.0383 18.3169L18.7037 14.3037L19.2077 12.297C19.4877 11.1864 19.4877 10.0197 19.2077 8.90908L18.6384 6.64112C18.5357 6.23046 18.1624 5.94113 17.733 5.94113H15.6611C14.8864 5.94113 14.1491 5.5958 13.6544 4.99848L10.0518 0.677216C9.79051 0.369221 9.36118 0.257222 8.98785 0.406553L8.25986 0.695879C5.53457 1.78786 3.12661 3.5705 1.29731 5.86646L0.214663 7.21978C-0.0466663 7.54644 -0.0560004 7.99443 0.177329 8.33976L11.8531 25.0182C12.8985 26.5115 14.6158 27.4074 16.4451 27.4074H27.0662C27.3742 27.4074 27.6635 27.2581 27.8409 26.9968C28.0089 26.7448 28.0462 26.4181 27.9342 26.1288ZM0.933318 19.9409H4.66659C5.17992 19.9409 5.59991 19.5209 5.59991 19.0076C5.59991 18.4943 5.17992 18.0743 4.66659 18.0743H0.933318C0.419993 18.0743 0 18.4943 0 19.0076C0 19.5209 0.419993 19.9409 0.933318 19.9409ZM7.46654 21.8075H0.933318C0.419993 21.8075 0 22.2275 0 22.7409C0 23.2542 0.419993 23.6742 0.933318 23.6742H7.46654C7.97987 23.6742 8.39986 23.2542 8.39986 22.7409C8.39986 22.2275 7.97987 21.8075 7.46654 21.8075ZM17.0611 15.2743L17.6864 17.1409H13.5424L12.1891 15.2743H17.0611ZM16.4264 25.5408C15.2131 25.5408 14.0651 24.9435 13.3651 23.9448L2.09063 7.8451L2.74395 7.03311C4.37726 4.98914 6.52389 3.4025 8.94119 2.43185L9.04385 2.39452L12.2171 6.20246C13.0664 7.22911 14.3264 7.8171 15.6611 7.8171H17.0051L17.397 9.37574C17.6024 10.1877 17.6024 11.0464 17.397 11.8584L17.0051 13.4077H10.8265L6.3559 7.25711C6.05724 6.83712 5.46924 6.74379 5.04925 7.05178C4.62926 7.35044 4.53592 7.93843 4.84392 8.35842L9.37985 14.6023C9.44518 14.8077 9.56651 14.9756 9.74384 15.097L12.3105 18.6249C12.4878 18.8676 12.7678 19.0076 13.0665 19.0076H18.321C18.713 20.0716 19.5623 20.9115 20.6357 21.2662L23.2676 22.1435C24.0516 22.4049 24.6769 22.9928 24.9756 23.7582L25.6849 25.5408H16.4264Z" fill="#DD408F"/>
</svg>
