<svg width="22" height="24" viewBox="0 0 22 24" fill="none" xmlns="http://www.w3.org/2000/svg">
<path d="M11.7857 6.49995H18.8571C20.5936 6.49995 22 5.09352 22 3.35709C22 1.62066 20.5936 0.214233 18.8571 0.214233H5.5C2.46714 0.214233 0 2.68138 0 5.71423V6.49995C0 9.10066 2.11357 11.2142 4.71429 11.2142C5.57857 11.2142 6.28571 11.9214 6.28571 12.7857V14.3571H5.5C5.17786 14.3571 4.88714 14.5535 4.76929 14.8521C3.67714 17.5707 3.67714 20.5721 4.76929 23.2907C4.88714 23.5892 5.17786 23.7857 5.5 23.7857H8.64286C8.965 23.7857 9.25571 23.5892 9.37357 23.2907C10.4657 20.5721 10.4657 17.5707 9.37357 14.8521C9.25571 14.5535 8.965 14.3571 8.64286 14.3571H7.85714V12.7857C7.85714 11.0492 6.45071 9.64281 4.71429 9.64281C2.97786 9.64281 1.57143 8.23638 1.57143 6.49995V5.71423C1.57143 3.54566 3.33143 1.78566 5.5 1.78566H18.8571C19.7214 1.78566 20.4286 2.4928 20.4286 3.35709C20.4286 4.22138 19.7214 4.92852 18.8571 4.92852H11.7857C10.0493 4.92852 8.64286 6.33495 8.64286 8.07138C8.64286 9.80781 10.0493 11.2142 11.7857 11.2142H14.1429C15.0071 11.2142 15.7143 11.9214 15.7143 12.7857V14.3571H14.9286C14.6064 14.3571 14.3157 14.5535 14.1979 14.8521C13.1057 17.5707 13.1057 20.5721 14.1979 23.2907C14.3157 23.5892 14.6064 23.7857 14.9286 23.7857H18.0714C18.3936 23.7857 18.6843 23.5892 18.8021 23.2907C19.8943 20.5721 19.8943 17.5707 18.8021 14.8521C18.6843 14.5535 18.3936 14.3571 18.0714 14.3571H17.2857V12.7857C17.2857 11.0492 15.8793 9.64281 14.1429 9.64281H11.7857C10.9214 9.64281 10.2143 8.93566 10.2143 8.07138C10.2143 7.20709 10.9214 6.49995 11.7857 6.49995ZM8.09286 22.2142H6.04214C5.35072 20.1714 5.35072 17.9714 6.04214 15.9285H8.09286C8.79214 17.9714 8.79214 20.1714 8.09286 22.2142ZM17.5214 22.2142H15.4707C14.7793 20.1714 14.7793 17.9714 15.4707 15.9285H17.5214C18.2207 17.9714 18.2207 20.1714 17.5214 22.2142Z" fill="#F26B2C"/>
</svg>
