<svg width="28" height="28" viewBox="0 0 28 28" fill="none" xmlns="http://www.w3.org/2000/svg">
<path d="M27.908 7.99C27.6747 7.53263 27.1146 7.34596 26.6572 7.56998L22.9236 9.4368C22.6529 9.57681 22.4569 9.83817 22.4196 10.1369L20.6554 22.4112H2.79926C1.25913 22.4112 -0.000976562 23.6713 -0.000976562 25.2114C-0.000976562 26.7516 1.25913 28.0117 2.79926 28.0117H21.4675C23.0076 28.0117 24.2677 26.7516 24.2677 25.2114C24.2677 24.0353 23.5397 23.0366 22.5129 22.6166L24.1837 10.8929L27.4787 9.24079C27.9454 9.01677 28.132 8.4567 27.908 7.99ZM3.46198 10.9396L6.92493 7.47663H11.6573L9.41714 12.7131C9.21179 13.1891 9.43581 13.7305 9.90252 13.9359L15.867 16.4934V20.5444C15.867 21.0578 16.287 21.4778 16.8004 21.4778C17.3138 21.4778 17.7338 21.0578 17.7338 20.5444V15.8773C17.7338 15.504 17.5098 15.1679 17.1645 15.0186L11.4893 12.5824L13.6922 7.43929C13.7948 7.44862 13.8882 7.46729 14.0002 7.46729C16.063 7.46729 17.7338 5.79648 17.7338 3.73364C17.7338 1.67081 16.063 0 14.0002 0C11.9374 0 10.2665 1.67081 10.2665 3.73364C10.2665 4.41503 10.4626 5.04975 10.7893 5.60047H6.5329C6.28088 5.60047 6.04753 5.70315 5.87018 5.87116L2.13654 9.60481C1.77251 9.96884 1.77251 10.5569 2.13654 10.9209C2.50057 11.3036 3.09795 11.3036 3.46198 10.9396ZM14.0002 1.87617C15.0269 1.87617 15.867 2.71624 15.867 3.74299C15.867 4.76974 15.0269 5.60981 14.0002 5.60981C12.9734 5.60981 12.1334 4.76974 12.1334 3.74299C12.1334 2.71624 12.9734 1.87617 14.0002 1.87617ZM9.37981 15.5786L8.70775 17.5948L4.85276 16.8201C4.34872 16.7174 3.85401 17.0441 3.75134 17.5481C3.64866 18.0522 3.97535 18.5469 4.4794 18.6496L9.14645 19.583C9.21179 19.5923 9.2678 19.6016 9.33314 19.6016C9.72517 19.6016 10.0892 19.3496 10.2199 18.9669L11.1533 16.1667C11.312 15.6813 11.0506 15.1493 10.5652 14.9906C10.0705 14.8319 9.54782 15.0933 9.37981 15.5786ZM14.0002 9.34346C14.0002 9.85683 14.4202 10.2769 14.9336 10.2769H18.6672C18.9193 10.2769 19.1526 10.1742 19.33 10.0062L22.1302 7.20594C22.4942 6.84191 22.4942 6.25385 22.1302 5.88982C21.7662 5.52579 21.1781 5.52579 20.8141 5.88982L18.2845 8.41004H14.9336C14.4202 8.41004 14.0002 8.83008 14.0002 9.34346ZM21.4675 26.1449H2.79926C2.28588 26.1449 1.86585 25.7248 1.86585 25.2114C1.86585 24.6981 2.28588 24.278 2.79926 24.278H21.4675C21.9809 24.278 22.4009 24.6981 22.4009 25.2114C22.4009 25.7248 21.9809 26.1449 21.4675 26.1449Z" fill="#EE6123"/>
</svg>
